<mxfile host="app.diagrams.net" agent="Mozilla/5.0 (Windows NT 10.0; Win64; x64) AppleWebKit/537.36 (KHTML, like Gecko) Chrome/136.0.0.0 Safari/537.36 Edg/136.0.0.0" version="27.0.6">
  <diagram name="Pagina-1" id="psYZYdLBnj7wMviSeIJQ">
    <mxGraphModel dx="1433" dy="1260" grid="1" gridSize="10" guides="1" tooltips="1" connect="1" arrows="1" fold="1" page="1" pageScale="1" pageWidth="1169" pageHeight="600" background="none" math="0" shadow="0">
      <root>
        <mxCell id="0" />
        <mxCell id="1" parent="0" />
        <mxCell id="pTmIeidkta4TC5YCTn2a-5" value="" style="rounded=0;whiteSpace=wrap;html=1;fillColor=#647687;fontColor=#ffffff;strokeColor=#314354;" vertex="1" parent="1">
          <mxGeometry x="859" y="344" width="190" height="160" as="geometry" />
        </mxCell>
        <mxCell id="pTmIeidkta4TC5YCTn2a-3" value="" style="rounded=0;whiteSpace=wrap;html=1;strokeColor=none;" vertex="1" parent="1">
          <mxGeometry x="357.75" y="75" width="211.5" height="450" as="geometry" />
        </mxCell>
        <mxCell id="pTmIeidkta4TC5YCTn2a-1" value="" style="rounded=1;whiteSpace=wrap;html=1;fillColor=#76608a;fontColor=#ffffff;strokeColor=#432D57;" vertex="1" parent="1">
          <mxGeometry x="50" y="75" width="230" height="160" as="geometry" />
        </mxCell>
        <mxCell id="xKx9XlLuNAV2VJ_ILK_Q-2" value="&lt;h1 style=&quot;margin-top: 0px;&quot;&gt;&lt;span style=&quot;background-color: transparent;&quot;&gt;í ½í±¤&amp;nbsp;&lt;/span&gt;&lt;span style=&quot;background-color: transparent;&quot;&gt;Account info&lt;/span&gt;&lt;/h1&gt;" style="swimlane;fontStyle=0;childLayout=stackLayout;horizontal=1;startSize=50;horizontalStack=0;resizeParent=1;resizeParentMax=0;resizeLast=0;collapsible=1;marginBottom=0;whiteSpace=wrap;html=1;fillColor=none;strokeColor=none;swimlaneLine=1;align=center;verticalAlign=middle;labelPosition=center;verticalLabelPosition=middle;spacingTop=17;" parent="1" vertex="1">
          <mxGeometry x="60" y="85" width="210" height="140" as="geometry" />
        </mxCell>
        <mxCell id="xKx9XlLuNAV2VJ_ILK_Q-3" value="Service name" style="text;strokeColor=none;fillColor=none;align=left;verticalAlign=middle;spacingLeft=4;spacingRight=4;overflow=hidden;points=[[0,0.5],[1,0.5]];portConstraint=eastwest;rotatable=0;whiteSpace=wrap;html=1;" parent="xKx9XlLuNAV2VJ_ILK_Q-2" vertex="1">
          <mxGeometry y="50" width="210" height="30" as="geometry" />
        </mxCell>
        <mxCell id="xKx9XlLuNAV2VJ_ILK_Q-4" value="Username" style="text;strokeColor=none;fillColor=none;align=left;verticalAlign=middle;spacingLeft=4;spacingRight=4;overflow=hidden;points=[[0,0.5],[1,0.5]];portConstraint=eastwest;rotatable=0;whiteSpace=wrap;html=1;" parent="xKx9XlLuNAV2VJ_ILK_Q-2" vertex="1">
          <mxGeometry y="80" width="210" height="30" as="geometry" />
        </mxCell>
        <mxCell id="xKx9XlLuNAV2VJ_ILK_Q-5" value="Password" style="text;strokeColor=none;fillColor=none;align=left;verticalAlign=middle;spacingLeft=4;spacingRight=4;overflow=hidden;points=[[0,0.5],[1,0.5]];portConstraint=eastwest;rotatable=0;whiteSpace=wrap;html=1;" parent="xKx9XlLuNAV2VJ_ILK_Q-2" vertex="1">
          <mxGeometry y="110" width="210" height="30" as="geometry" />
        </mxCell>
        <mxCell id="xKx9XlLuNAV2VJ_ILK_Q-6" value="" style="shape=image;verticalLabelPosition=bottom;labelBackgroundColor=default;verticalAlign=top;aspect=fixed;imageAspect=0;image=data:image/png,iVBORw0KGgoAAAANSUhEUgAAAf8AAAP+CAYAAAAFMhYyAAAAAXNSR0IArs4c6QAAAARnQU1BAACxjwv8YQUAAAAJcEhZcwAADsMAAA7DAcdvqGQAAGARSURBVHhe7d1/jBxnft/5L5OLaAO3iATYMOz8JQ0pKSPGielIGFPJMc6Z3NEoOooBV0bgS0TIE3K5E1KUMAxCWQgQQxENcCLxR2iaylggz0j2TBGmCEWjWXLXF14seSyd6cAejSkNh4KTtX22k6OQ/WN3dDjPPd+qp6qfqq7urp6pZvX09/0SSpzu6vr1VFV/6nmqumrDd77znRUBAABm/AX/LwAAMILwBwDAmDWH/ze+8Q35X//RP5J/evRl/w4AAOhnqw7/O3fuyMGDB+VfvX5c/pd/+r/J7/2n3/Z9AABAP1t1+L/00kvyt/eflvGpb8r//h/+b7n33nt9HwAA0M9WFf4HDhyQn5w4G/198vT56N+/9Jf+kvzX//pfo78BAOgHk5OT8pf/8l+WL33pS4Wd9tPP9Jsf/et/Q/7P//gf/atm2u+v/40f86+613X4f/e735Xbtxejv3/+nx6WH/pro/L//aez8hf/4l+UH/iBH4je78Zjjz0mv/Irv+Jfxf7wD/+waQXpe0o/m7z37LPPRu+1ouMuGof69V//9Uw//Ww78/Pzmc/r8N3SYX7+53/ev+pOOG3tdH4AAO39m3/zb2Rubk6+/e1vF3a/8zu/E32m3/zrf31annvuucIDAH1P+50+fcq/072uw//555+Xn/1X34z+/oP/+MvRv3c+/T/k+PHj0d/d0DD+q3/1r7oFOO3fadD3v/Od76TdX/krfyUKz88++yx9T8M/DPSQBuQv/MIvpJ/9zd/8TXn44YczoXnkyJG0/9/7e3+vZTDrdH/iJ34i/ax2v/Ebv+H79lZy0HHz5s102rosf/qnf+o/UQ89WGpV9gDQL/78z/9cfuRHfiSq4Rd1DzzwQPSZfvM//e2/LW+++WbTAUAS/NpPP7NaXYW/Bu/HH8fh+bM/8SXZcSxuAdDCW02tX0NVA1yDvkxNVsPmb/2tv+Vfifzdv/t3o4OCPA3xX/zFX4z6J7Zs2SJXrlxpeZDy9//+3/d/Ndu1a1cUuqF//s//uf+rt3Qla/CHy6nLEi4bAGDw5A8Aqgp+1VX4T09Py/PnPvCvYt/5zX8l3/ve9/yr7miN/6GHHooOAH7t137Nv9vaj/3Yj0VB3OlA4d//+38ffTZPp9VqOnpQEB5YJPQARVsI2glPL+RPRejrpF++phz2y5/6ULqcemBUdIATSsahXVI2ySmGcBqhcJ71syoZRvsly5F8RrukZUT7//7v/37UkpJ8LmmhSLpknEpfJ6draC0AgPLCA4Cqgl91Ff7/+T//5+jfpNa/8ud/Lv/vH34k/+7f/bvo/W6Ewaa12HyNXMMlCRING6U1Xq2BaxO8vt/Offfd5/9qyIeoTjOZhgZ8q9r0/fff7/9qpuGnP3lMmuSHhobSkNR/9XXSLzy9kQRz0u+b3/xmYTDq8AkN1GR+k4MFLZvwlIBuHAldvuTUhv6bDKPT1Q0oGeaf/bN/Fr2vdJjLly/LhQsXotfJZ7TTgyqdxw8//DBadzpd/Zy+p+sknI+igzR9v9OBDID+lXz/dOrQ/7oKf72oL/T5+6/LT/7kT8pf+AtdXzoQ1cCTWqPScApri+E5fw2bkL6n5711I+umJpn/bBKMeoqgXcuDnu5oRYf7h//wH/pX7sDoZ382Ckml/+rrhF6DkNB+GpDJzqLj+eSTT3zfhqWlJf9XfJojmV+ly5PUwJPx6OtkOXX59IBJaatGshw6reQAKhkmCWodJgzo8AJL/VwRne/8cDqPeiFNIiwjAOtT8p3cqUN1wqb+pAUgvAZgtboO/+dG/kf/SuR/+H/+06rPfWsNMww/fZ3UNsvQUNOACQ8YEnrxXtH7SUjlaTBpGOdrqkpPFei8dUMPXBLtarphTVm7fMuDLqMGdbsDnPAgKenK1K7zwyQHCSEN/vACy3C5yqCWDwCrlz/Hn78GYC26Cv8/+IM/kJ95Lq7JfvgLj8qxY8dkw4YN0etuaDDrBXZh+GjXKeiS5vSENpUXBYzWtr/2ta9lDgA02PVgI6yJh7RWXhTyOn49YEhOPSSSedHlSJrT1S//8i/LT/3UT0V/a1iG/cLmdT1A0c92ogc4WrMvkix70YFOO/l5bic55aHlF9b8ddn0Lo8qOUAK152Wv74PAHXSlun/9t/+m3/V7I/+6I9W1Xrda60u7qvqAKCrJT558qT83v/1UfT3iy++IH/zb/7N6O9uaQ0/bPJPaMgmQaZBk7QKaKfva3CH72nIFp2n11DUg4mwZUGbuTX0WtVGdTw6zaJQ1NYNPa8fTjv5dYAui57LT95XSRO39tMQTPrpOBI6Tm1tSPolw+bpuPRXCuHndJzJNPT8fLicReWal5+v/IFNQssk+ZyGe1jz17LXMtXpaZkmP6VMxqmvW5U1ANwt//gf/+PoAvDkuynf6feafqafrKysuLw41BT8ieQA4J/8k0amdKvr5/n/9//+39NwXW80qLR1QQ8y7tZP9QAA6JYeAKymZb2srsN/eXk5+k3/egx/AADQZbO/2rhxY9TcAAAA1qeua/4AAGB9679LHAEAQE8R/gAAGEP4AwBgDOEPAIAxhD8AAMYQ/gAAGEP4AwBgzIbl5WV+5w8AgCHU/AEAMIbwBwDAGMIfAABjCH8AAIwh/AEAMIbwBwDAGMIfAABjCH8AAIwh/AEAMIbwBwDAGMIfAABjCH8AAIwh/AEAMIbwBwDAGMIfAABjCH8AAIwh/FdrdkI2btzouwmZ9W/nLZ3eHnyuTbf9tCz5YWJLMnt6QrZvDz+3XbZPnJbZ7Ae7MjvRanre0qxMbM/O8/btbvmKPuw+e3oi/Gw8f2Vmb/XlMqjc+tZ1619VKV3nbbbTrCW3ak8XbAfbZcJtCM3rY0lOZ7bTfOe2i1bbUEs6D/ntv822WKHuy6s7RWW70b3ePjErSzY2dq932zw6I/xXafadaf+XmpZ3Kt2C9ct0WHZNTsvcnH8rMidz05Oya1i/hP1bpemOtl12hbOdp1+2w7tkOjtRNw/T0TRPh19MS6ejz05Oh5+N52+4R1+aAys64HLre/qmf6NO8bwM75os2A7mZHqX69d1ALvtomgbaimZh/z2n2yL7iCg3Ij6THyQVFS2uqBz07tkeFX79jrUV9u8TYT/qsxKJvud6QrTf+n0czKZ+27I0i/h8gEb1zR0R2s3UvfFdMx92UZ/j8vUwrIsL7tuYUpGovfmZPK5Ri189rVJ/1n36SsL0WcXpsb9O9NybF1+Oddj9jU94PIvaqXhVGJeogBezQGe24Ze6zRUuXmYmxxeZyEZH9C3369Vd/v2etU/27xdhP9qzL7j4k2NyPh4HI0u/TvssONyRcO0VXf9oAz5Ty7eTPYKN34frFG3cEWm/OTKtjZo83pc09BXIz7IiyzKzaT/+FNyMJmZoYNyNMn0uZvuU2pJFuejP9wop+TF0fjDQwefcksZm7sZf7Kz8uXSOFWgNci4JaPRbDrRslbZ1Hzsm69DmXFHB0vJ57fL9mS4orQJTv8kvTPNxvnTKLlas3620RrjQjUZzr+jZZ1ZzujUyqx7t0j82XR+tUy6qKJnDzrjbW8hWBcLV5IDQdXiAM9tD+EwUZceQDrziy3mPZaZhxF3ENpy+3dzcKz5lFBTk7qu69NVlVc36yJn9rUOZTveoWzLTXt1+8gqxp3ZRxrbdFz+yftxp6dqwul23uaT8YTzXrwey8wTWnAb3gpdd53bT1dc0a24L7qVhYWpFbfTRq9HphaaPrswNRJ/VsZXXMg19S/q0vEXDdNhevkunf6IG9fCwor78vSv3bwXfL6oa56fVuO5suLCP35//Eo6fFG3mnJpDNOqG1mZWsgO05j35i4sv5bjdst3pc28Fq2rdtOMu8Z8Fn82GVdQnvlO16efXtwF66Rl166sw+Gby7HRBfOUrvvO21W6nG23u3AeWs2rfmZkZcRtXwu5eWy7fTRNt9vy6mZd5LuSZav7tls2d2CQm9fy0+5+H6lg3EnZXhkv7h91Zbf57tZjx3mia9lR8+9ao8l/ZM+YDA2NyR5/yD53aabpyLQhOcIt7pJao9r8cFIH0GHiI97Z5EogVxO/7msL19PqeTtb3D58RRaunxFfQe/O0mk5lhyljzwsm6M/hmQsXehJec0fYi+dPubmODb+1Kj/q5Py5ZLhaoVX/KkJ9wXg35yTSzPBGnC18qSGMTLlykDLzdUe3ZddZG7yteLWGld7Tcf95piMju3xtbJ8a0tw+mf8KSle4mA+3bderNH8PXpmWdK301YQt67cq9mJXb48G+NIa9FzudphWLPU9R2NZ8GNOymbThYlbXAaP9po+WkyKk+li3FJwuJuKdyG2grnoVV5DsnB69fl+plRt+/5t5SbxnNJAQStD+m24bbT59ZQXl2tiyYly1b3bbdsZ9yOGn5k1dMusY+sftzZfWTIffPpacPIeND6k7b6NKbbbpvvej2GmuYJbbmCKjwqoGvRpUe3jSPZxtFn81F9o1/7bvxKOFybWok7Gp9qqhmU7YLxljoyztYKsvOoR/BFy+ZqLt20SHTowmmGw2TmJWgNCVscGjWM5hrMyLir0S8U1/zzy5kpt7BFI6jphMOENZvmMkv6NeapeD4bZZ9v4WnMa6dxaBeuw3y/oOuiRakx/WR7L1OLjru24+6yVSvsWi9/N2WuXVF5dbcumro1LFe30265HRfuIxWNu6BbWLiycmVqfGUk3C5K7Jvdrsdu5oku21Hz71J6lf/IHhnzh5ZDac0wV/NcNa3duKNXt7W7nSfLHY1PJldc+7fcXMlEvta81p/I6bnqjUmtwHFH1S9mqmJ63j+pzoTmZP5muxaQKozIw3ETRGxos2zxfzaE1yUkLRaxoYNaczwoo5mqYyI37kjQ0hFc29HYFvJlkxiXfANIo1VnXhbbFdLSovtETC9uC9ftcFplTcYRLGtTjTmoqdfN1bDfLNVa1a3W61o1l3mX5dXVuuhScM1Ipkv231VPu8Q+UtW4U672768dGB7eVfBrpU66XY+hVvOEVgj/boTNl3P6kza/sww3rnxv3fSfNG8Vd2cKwmNo9IxcdwcB2hzpjqRlaiq4KMgdBOxq2Sa+Rm45o5/8+ZdR81tw4V20k6dXLgdNi/6CsOjnfqXnrfty6dqWzWtuAmwc4CVN/7nTP/GfHQ1tTr6C56TtNZGLN9NtqrOgWXm1gnDIX6ypF1U1LgBbkplLycS2yOYyC55cuKdN9f6tQm3mob1g+QvWdXOZd1leXa2LAqteLmet026n0nH774TkEn5d53qqLTjN1lm36xFrQfh3YWnmUuedJToH7v9eDQ1ef1DR+C3zkAwNjcrBg+5gwAXilWRv6vgLg1WIgr9xMNMc/M7SjCTf/yNTL6bXEgyNBr8M6MW8rVaHK8xLCa7t0J91Nq5vGJE9SRNQCUuNqk37msrmh9MDvfErxQdGy8vX/fnjzdKoFK12WYNxTB8Lrs6eldfcUV70G3S9/mQivBq/uXYWbS/RvC3IlfQ87bRMHivTGhTOQ6vtR0NGD0bCm121X/7mMu+yvLpaF0ValW0Ja552G1WOO/Od4A70rp9x31e56zI66nY9Yi0I/9LCGk97a/rNf1hLmHxOJtw3RbgT6E9gmi+eGpUz+Z02H9ilzMpEp+BfN4akUVFIfqLoRT/96+5ncDq+RtP/MXku/aZrnP5p1vxzzMbPODvUmoPtoPP21GZZ3TpNL0psK1g+twVMRjeb0fJx25bW3qJeczId/Di7fYvHkIwevJ65UKtza1A4D9OyK7+O9I6SUYuTv9lVet+JdstfVOZdlldX66LIkBxs/F42Ldto3kfP+H02bt1rut5wzdNuo8pxB60IW8INOzi1MNIxsbtdj1gLwr+s4MhWz11mgtbvvMn3nNuTCmot7a9qb/zOdVReTEfkvmwnhxunF1ynv9lPv35bXhG9Oo0rf512wZ87QElqMpkDk6JaYaGy5dK90fTk7bQcC5qto5sZ+WsnujlzEl7bkZzL7NTkH92wJS2fxq8PwnVXfC4zOPfsDjbS+xJE12L4sgmu6wiXVU8HJcuaWacdDB08GjTRxnfzi6YT3fXRv51w20eZ8/d6fUWjpWpXx/IeOvhmYz/y6yjdFvSOksF8jB9tbJ+jLyZXletBQ6Nc9JRF4xcfL6Zl3l15dbcuCo2+GNyjIC7bcL/euNG9Dsp5JG32rmDaLVU47qAVIb3/gh6sPRecEg3a6ludv+92PWINXHAVXglIl+3KXFVa9JnwvfZdeHVrmaunm6+G7dy1udo/vBq4ZRdMs+Rvelt1qymXxjD58QdXaIdX47uucYVwQRd8tvW4wy6/XorXQdtpRl1uuKayTPqHV57nu+b57Hq6Rd2Cm2apK/f1Vx1X/DbUZruKxhluWyXmQZe7wzzo7/zzw7Xdpgrmq7vy6m5dFHdl9uv4d/7Z4cpPu/t9pIpxa1di2cLpttzmu1uP5fZbuqKOmn8pYZN/8xXciUbNMDj6XRW92n+h+Gp/94b70pWF5HexFSl1PUNImyujZsrsDI6M629tV3kOsgf0N8VN5RiVYXwBWnfC5lunY8uLXsy4IFNBW25cPrl152qFmd+X65/RxhM3uevwmdlvUcajZ+Lz7OlndTmv6G/X/esyhtw0o21vqnndRuWWXHSqrVK7Wv/mOhTeJdLXtNtL5qF5+x+Jfru+EP3OP09bGZrmO5pnPQfd3IrVXXl1ty6K+V/x+P0ms2jRfOp+Hf/OP6uKabdS1bjj76xwW3cjiS70dAEdvw5bRFtu892vR6zOBj0C8H8D6ER/muXbH/UiqaLjh8btSzX8qz1I6w/aPP6cHJvfI2/yZQysS9T8gbL0XGh6UUPrFqDBN+RqzdflOsEPrFuEP9CRvwAqvCCLi44ArGOEP9CVERf8V0o+VwEA+hPn/AEAMIaaPwAAxhD+AAAYQ/gDAGAM4Q8AgDGEPwAAxhD+AAAYQ/gDAGAM4Q8AgDGEPwAAxhD+AAAYQ/gDAGAM4Q8AgDGEPwAAxhD+AAAYQ/gDAGAM4Q8AgDGEPwAAxhD+AAAYQ/gDAGAM4Q8AgDGEPwAAxhD+AAAYQ/gDAGBM78J/6bRs37hRNjZ12+X0kv/MujQrEx2WYen0dtme/0BUHhNu6NCSnN7eKJumYcooHG/FdBoTPZ0CAOAu6nHNf1yuLC/Lcthd2SKTw+v9AKCdWXltcoscPTjkXyt3wDA8KXP+VWJ2YlgmZUoWtFwWpkQmn+vPchk6KEdll5D/ADAY7n6z/+iLMjUyJzcX/esBs3T6mMxPvSij6evtrla/S+bHx2XEvxeblXemR2TqzYMSHSa4gL2+fF0yxwx9ZPSpcZk+dloG9pgNAAyp/5z/7ETa7B11YfUy0y/XWlDYL25GT0fhTz2kr3WY7T7AMqclgnHr+9snZCJqjvfN6eG0Jt6JPlZsSWYuiewZCxJ889GoZn/9xYf9G97SoszLFtlcNuwz8xssUyKYx0y/TDm5LunZaTnz5T36lIzPXZIZ/97sxCpPUwAAanf3w3/2NZmcG5enoqrxrEzsmpbxK8kpgXFx1UsfOtpvXqYWgtMFzyU1z1b9hmRsz4hMv+MDbvGmyMiIzC/GQy0tzsvInjH3qbgZfks6XT0VEZw3n5sWOar9zrgafHYeFx6eF9e32NKMXJrLBvrQ6Ghcs89z8zY34g4IopaBOHCbAj2Vm9+FKZnfFZ7nn5Zd7zzll8XV0NN+2XnPlq/TtJytylttloeDFpvRM+6Apl+bKQAAbfU4/F0opTVJ30UBo2GjRuWMC5ozSRu51i79n7Hg9MDoGVm+7pvII8X9hsb2yMj8YhRas+/My56jeyT+oNbK52SLJnNU604OQJxouvPijxGcEXl4s/9z9h2ZHpmSF/1nhw4ezc1jQAPd/1nK3KQckzeD0G5xLURuHuJTBEkZqhGZSnpufjg4vdCpfIPljLQr7yHZvEXSAykAwPp19y/4y5/XzjRn7wpq1RpcV8QdPaQHDo2acZt+Q5tlS9Q8vSSL864WPupeT7/j6rWLcjNpcfC17kbuZWu1EjTHa2tBVzLj7cAF+ptJYbS5FqLzPLQ5fdCyfFU4XLvyBgAMknrP+WswDV+SPUlTswufbM00rrk2asZhU3erfqPy1LgL0ZkZuSQaxPra1epPu9rz+FPulaO147mb7nAgoQcG+VpwbEiru2U1jbeNLj7b1TyEOpZvXrvyBgAMinrDP2omb9Q+ZyeCmmlUY23RDN6un6NXps9fiq68i5qtXc7KpUvzrlLu011bB9yUkksDomb1VrXn6EK3SXnNf1av5m95zr8b+vO58Wk5lixE5lqInNw8dFr+VLvyzes4Tm1Jkfi0CQBgXas3/KOm7sZ1AccevtJo+tbz2tGFeL4ZOrxWoF0/pWk/58/vO1pzdi+Dq/BdDTe6aK7F8BnZzz4ne1rXnofGZI9bnvSgooPRMwuy59Kwnwe9MK/cPGyMLv4r8bPAduWb16lMc60jXO0PAOvXhuXl5RX/Nyqgv+t/Tt4cvCvh9WeAxx6WhcxFgACA9Yjwr9ysTGx8R57KXI2//mlN/52ngl8OAADWrXqb/QfSqLw4Nd84lz8Ilk7Lsfngp4YAgHWNmj8AAMZQ8wcAwBjCHwAAY2j2BwAMlHvuucf/tf597WtfkxMnTvhX1SH8AQADRcP/29/+tn+1fn3rW9+S3/qt3yL8AQDoJAn/L33pS/6d9entt99eH+H/9a9/3f8FAEBvPfvss/LFF1/4Vw2Ef2eVh7+uDAAA7gbCf3W42h8AAGMIfwAAjCH8AQAwhvAHANh27bDce++9vjss1+I35fC9O+Xs7ejFwOl5+N86+bjsf8+/KED/we4PAH3t9lnZ+RWRtz7/XD7X7sZDcitO/4HWs/C/9d5JOfnereRV7jX9B70/AKwLS5/Ih489JEP+pTxwQA7s8H8PMv2pX1Xd+fPnV0KLizMr+7bJimw7sTKz6N8M0H+w+wNArxVlkfov/+W/rLiafInurZW9IiuPHbtR8P5jK8feOrbymOvv4jL7mRuN97Xb+1b8/lt7G3+n47gRDLP3Ld+vc6eZeuDAgcJlXGvX22b/d1+RN+SE+++ifOrfyqD/YPcHgL63Q058fkN2X94anfM/nGny/1COHhf5JT0d4FL9w6OnGtcDbD0qw28lpwqOycJX4usDdjy5V86/60dy7V1ZcEcIl78RXzhw+xuXRR5K2xhq1dPwX5RnZOb95+X5Cy/LwrvNJ4bpP9j9AWB9eEAOXE1CPDwAeEyO/dIB19fZ8aTslQW5pTl++5b7a688mZweeOCAHNn7oXyy5P4eekgeW7gl+rFr7y7I7iO7Nf3d69ui2b/7y9HYascd/gAA61bVd/i7fXanbP3kiHx+QuTwvcfloRtX5UCU13r1v38tZ2Xn1k/kiPtQkv/XDt8r7z75uZzYcVvO7vyqyC8dkU++eksOXf2yfGPnKdn0Sw/JcX37qj+YKIE7/AEA0AvXzgY/59Pa+YfyWKem+Qc2ybCcl6R1X38xcPx80hLwgHxZK/tfPS4Lu7/sXunrBXn31Cda7S8d/L1G+AMA7NqxST7ZmvzGf6scHX5LrsZV/TZ2yAl/iiAabutl2X2j0QrwgKb/h40mfn29cH6hb5r8Fc3+AIB1iwf7rA41fwAAjCH8AQAwhvAHAMAYwh8AAGMqDX8u9gMAoP9VerU/AAB142r/zgh/AMBA0fC/cOGCf7W+Ef4AAJRw+PBh/9dgIPwBAMCacbU/AADGEP4AABhD+AMAYAzhDwCAMYQ/AADGEP4AABhD+AMAYAzhDwCAMYQ/AADGEP4AABjTm/BfOi3bN26UjYXddjm95D/XT9rO84TM+o8BALDe9Sb8hw7K9eVlWdZuYUpGZFyuJK+Xr8vBIf+5bkUB3SaIO/XvKJzPsDsjo/4TtVrz8gEAQLM/AADm1Bj+szJR0Ky+dHq7ex2cGvDN8dtPn5aJ4UmZk2nZVXjqwI2vqH+mOX+Npxx8zft0NI/xOLeHI8xMa6NMNBZKtm+fkInt+r77d8L9m/aMRcsdvbckp7e7+Tw9kY4nfr94+WbduDLzAABABzWFvwbcLpErcbP6wtS87Np+2r2rZwyuy5XxOZl8LQ7H2dcmRaYW5PrBg3ImPYVQdOpgtKB/HJhb/HSWr2yRyeF2zeYarD5wwy4T1NNySd704xuXucnX/Phy03LzMr8rmNbctMhR7XdGzrzo5nP6nWA+lmTm0pyMP5WcXHDL7xY7PgVxRcand7mA31y4/KNnll3ZrPY8CgDAonrCf2lGLs2NS5J1QwePyvjcJZnxFdjRMwsyNb/L1ZAnZNf8lLy52nBbWpR5F5Zppo4+5V7Ny2LLinKLc/5nwjP+I7JnzM/P5ofdK2/2HZkemZIXk49G1z2E1wqMyMOb/Z9DY7JnZFreSdI/Vx5q/Eoy7Ki8ODUiczcXo1cAAKxVjc3+YS17l3sVGpKDR8dlenpaxo8edK9WafGmzI08LEnmurSWh0fmZG05ukU2F8zQ0uK8/6uVcLghGdszItM+/ZdmLolMvdjyosKhzVtE5hejlhEAANaqxvDP17LDpvxZmdg1L1NXck3n3dKa+dxNaWT9otycC2rgFYoCugtRa0fU9K9N/tJoTSgQHVhs2bz6gyAAAAL1hH9Ts3d8IZ2vB0fXA8xPvSkHRw/Km8H1ALF2zfYq6D+02dW3g+lo03yLmvua6SmFuUnxlyr4ZWp3geGoPDXu5u30jFySPZLP/uljyTLPymuT4fUAnZYfAID2aqr5D8nB61dEdvlm/2EXfwvxOe7ZiWGZlMZ5/vh6gEkZ1ovuooOGOZkcDq6kDzX1jy8CnE+mo60JfjrFWlzw57rC6WXkphVd/Nf+ngajT43L9KT7XMGpjfEtN2U4mrYeCC1IdNlBwfJztT8AoFsblpeXV/zfuNu0dWD4phzNXBioLR/DcvPochz4AABUrMZz/tAL/ebGn2rTEgEAQPUI/zr4mwENT26RK1TvAQB3Gc3+AAAYQ80fAABjCH8AAIyptNn/61//uv8LAAD0wrPPPitffPGFf7U6lYe/zhQAAOidtYY/zf4AABhD+AMAYAzhDwCAMYQ/AADG9DD8b8nJ/Y/Lhg0bou7x/fvl8cdP+n53z3v73bRP3vKvAABAz8L/1slnZWH4gqysrETdhaeHfZ+764lzK/L+85v8KwAA0NNm/3lZdPX/2KYnnpf333/ev3JuvSf7H49bBeKWgZPpZ5XW2KP3Xa39vZP75XH93OP75b2gX9LfvZG+3pC0LgTvFdf83XiDlgkdbv/jj0v60Q7z186tk/F4o9aOdPzxvKfe0+kl439c9p9M+rrp+s/H/d1wblnC5Y+sYf4AALb1LPw3PX9BXl54RZ4NwylIp5PH35Yj78etAtq9f+RBOe4+k9Aa+8rMPvng8LPyysLTcmHRvb7wtGx249B+iye2ybYTi3Gt/olz0We37ZuRleQAQ99z49XPFXlv/7Py9tONlomVCw+KfOB7Op3mr51Nz78fTfeDeZGXdb7d8DNb5uWV8CDkiSflyIVk/O/L0wtjsj9K9ifk3OIJ2eYGHnb93Z8yNhaPR8fxtk//tcwfAMC2Htb8N7n8fV/e9+F04ekF2fysD6dbJ+XiG2/IZn9gEHWbx+SNNxaytWNn24kL8v65J2STttxv8v/qn+7gYsvF42lt9+Qr8/LMkSf8q07ek7fnn5FzTwSnA9y4z7kQjs4QdDF/7ex7+Zwkk3ji6S3xH4lb78rxZxvjd7Ofte2ZaF42uWMS2fd0NJ7NyZmTiuYPAGBTT5v9Q5ueeFr2feDDySXalm0n0lpro3NhGX26jE1y5Jl5Oa4jfG+/XNzychzcXWjZTF7J/LXznuzffFGGX15Mx33hmeIWikI9nz8AwCDrUfjreevH5eR7Qbze+lTmtQYbvXhCnt5yUR5Pz3OvzqbnXxZ55WSXtX6l0z8szwbN8Lf8OfSk6b2K+WtJy2LbFnlyc3y0cuu9k3L8YnDOoaMezx8AYLDpvf2r6s6fP+8qoGpmZZ9sW9m3b5s+NyDutu1z74YWV2Yy/betbNs3495VOrx/P+hc7yaLJ9w4mnoUDy8SzsPiyonc9E/MxFOPtZu/9qJ58sNFszazL3297UQ8hvAz2/adWJmJXrt5WAzmXQf2w+pwyTDx4q5+/gAA61tRBnfT8WAfAADWGR7sAwAAukL4AwBgDOHfrVsnGzfuKexyN/MBAKDPEP7d2vR8eu+C4o6f2wEA+hvhDwCAMYQ/AADGEP4AABjTk/DPP3Uvecpd1NXwTH9rKH8AQDs9u8mPPi730yP+QTkRvX3up3IufKwveobyB4DBtY5v8nNLTgbP03/c/f14WCtdw/P+++d5+rficXX1878S009/bvi4JI8nSGv3pWv2vSt/AEB/qy38b518Vi4OvyyL/idyF57eEj5Of03P+1/fz9MvMX39uaFbdn3ccVKz10ccn9i2T2ZK1ux7Wf4AgP5WW/jrE/m2XBxLn0n/7CsiMxd8cFXwvH9V//P0N8m5KDxX8dv/dtNXTxyRZy4eb0zvveNy8ZkjpadzN8ofANCf7l7462Ns/Z8xV8NNapaLi3LhGVfDfdbXLHmefgmbJH6isVa1b8lJF94vN07wN+ur8gcA1Kln4a+11MPHG/XEW+9elA+2aDU2dvLxx2V/8rx/rS66XtvS/oPyPP3VnPPvgq/9nzzZXOvv6/IHANQrfL7vWrvG8/xV9nnz+sz68FnzJ7bta37ef+Zh9Kt/3n//PE8/GZdbNv9OZ2Wn70X9i8ZfX/kDAHqrKIO76Xie/3qnvwT49Ii8367JHwAwUHiev1HpjXzG3oiuuA9/yAAAQDuE/zoV/dQuvRAvvJkPAADtEf4AABhD+AMAYAzhDwCAMYQ/AADGEP4AABjTs/A/GTwRLu70yXmD+nu05El8VTzYpxqUPwCglZ6F//Pvz8g+999M+nO0CzK8MKi/R39Czq3o8vYPyh8A0MpdbPbfJE8Oiyws+pctn6ef6PC8+Tb9k1qvPms+kd4UJx1Hbnj3fjgHHZ9Xn3nevd4n37+f0U/P87dY/gCAQvn7/a6ly97bX+//Ht5zfnHlxDa9d75/6V4vBveSn9mXvTe83sd+24nGvfIX9R722074Vx36L56I7kOfp/eqT6afnRdH7+nvhg/fiu+b7+9prz3cZ+J51s+G98L398EP5i+2uIp7+zs6/9FzBvRPf+9+97dOI10sN2/JcwpiWr7hdCh/ABhURRncTdfj8A8f/KLBFXy1u4DYt63Rf5v7O5sX+gUf9g+/7FX7/hqE+vKEfiYKFRfESbiUCKdIU8B6Re/rOKsKn3BcGoB+XjVwG7OdC/umeaL8AWBQFWVwN12Pm/3Dc87vy7knknvQvlfiefptnjcfad//wS3z8u6t92RBTsjMlovy7sl3ZX7LgzI4d8Et8zx/yh8A0Kyen/qVeJ5+++fNd+7/xNNbZOH42zL/zJPR3xcvXpQtT/sn3m96Xp6ZfyV78ZsLqrfnn5Eny6TTE0/LlovHJZm8hu97xy9KdglUfc/zb8tM+QMAChU1B6y2C5v9o+Ze3ySsTc7NrbTZZ803nqcf9+/0vPlO/aNm4HR8eu49Pw+LKyeC4bXJuNEQnW8yj7tMS3V0jjrpp03qfphM03MynqB5vqNg2jpBbfZ3f2szd1JmmfmI+jePn/IHgMFVlMHddDzPf73jef4AYA7P8zeK5/kDAFaL8F+neJ4/AGC1CH8AAIwh/AEAMIbwBwDAGMIfAABjCH8AAIzpSfinT5jLdy2fOAcAAO6WnoT/puffl8UT22Tbica941cWT0j+7vGdnAwf4QoAACpxF5r99bnrrsa/6Xl5//3n47fS59FviJ/D/t5+3zrgn0/v+x/+4A0Z859LP+t1fN57x+fVqx7fex8AgD7U0/D/4PBmF6xj8oZ/ndIDgaglwLcFbB6O/t43429Wo/1XVuTEtvCpdCtyLnhyTXSTm5l90d3tXll4Wi4sutcXnpbNyZ3unnhSjlxIhn1fnl4Yyxw8AABgVU/DP272n5F9/nVGdADwssyPuZr35ovyzKI+ctb368K2ExfkfTegPlhONvl/1a135fizSc1/g7wy79/P2CTnooODc+WfiAcAwDp3F5r99bnvvrk/59bi2/KB1vm3iSwsVnlz+jLPqwcAwKa7EP4N4QV8+ouAza+IzLga//vvvyzyyubo/H3WvHzq37oVndffL6UOEUo8rz621nP+nYZfa38AAKrXk/CPgv3wB/6cf9zsrp17K9NfPnhD3l50b7z3tryhL93nwwOAJ1/eIhc3x8O6iry8vHhO4jh3NXsdZ/REu8Y00nP6m553Nf152eyHffZtkaddzf+NMX9BYUonvhadhl9rfwAAqsfz/AEAWGd4nj8AAOgK4Q8AgDGEPwAAxhD+AAAYQ/gDAGAM4Q8AgDGEPwAAxhD+AAAYQ/gDAGAM4Q8AgDGEPwAAxhD+AAAYQ/gDAGAM4Q8AgDGEPwAAxhD+AAAYQ/gDAGAM4Q8AgDGEPwAAxhD+AAAYs2F5eXnF/71m99xzj/8LAAD0yhdffOH/Wp1Kwx8AAPQ/mv0BADCG8AcAwBjCHwAAYwh/AACMIfwBADCG8AcAwBjCHwAAYwh/AACMIfwBADCG8AcAwBjCHwAAYwh/AACMIfwBADCG8AcAwBjCHwAAYwh/AACMIfwBADCG8AcAwBjCHwAAYzYsLy+v+L8BVODV37jH/4Wq/Yv/eYO47yz/CsBqEf5AxTT8/8W3ftu/QmV+59dE3nuV8AcqQLM/AADGEP4AABhD+AMAYAzhDwCAMYQ/AADGEP4AABhD+AMAYAy/8wcq1vl3/vfJzL98QJ7wr9St/7Agm699178aAD/0I7J46Idlk38pf/bH8viJP5IP/Mum/qk7sv/nbssb/lUGv/MHKkPNH7ibNPRc8Muv/rZs+Lmkuy2Lf2dYFnd8v/9Qzfw87vMvu/ajD8jKofvk3VONZXz84/vk/aZxatCH5fDbsn/hPjl3+Edkm/8EgN4g/IG75vvlxD/4YRFXyx/7Xf9W5I6Mnfpjkb/zw6sP3L5xn8z89H3y3q9+LIf/xL/lfHDt4zjYf+Y+/06xN775x3LrB79PtvjXAHqD8Afulh+6T578wTtyvKh5/0/+SDZnmrv11MCPy0rUBTVmXys/seMR3+/Hcy0GbYY7/IDMHA7e1xp6+lnXRcHsho+a411Q/8tH5MQP6QdVi/Hm/eh98sSf/bG8kjm4ib3xe3dEhu8bgAMcYP0j/IG75Ye+Tzb92fdk3r9s7fvlhAvq5NTA4//h+3NN4e4gQm7HTeW/ekc2pS0GHYb7QRfuv6799CAjqaHHn9XxyPCPuLCPWyFuRU3ySe290/w0bPshdyDyZ99tnNsP/cn33Hjb2/dT7sBj4U7xOX8AlSH8gRrt+5mg5p3UtH0Lwdu+9vzBtT+S91xwP5PWwr8n7/6ubz0IA7XEcJ+mTfEu5F2Qp6cffveOvOf/bNJxvKulrQvh8v+4HPnTBdnwb92BCICeIvyBu0WDOnc++41/62verjaeDd8wGLO/DBD5riwE59OzuhguOoXQ6rN57cbb8MGfuIOSH/z+4gv2tOXD/xkLLviLWhtEFnV4AD1H+AN3y5/ckXf/7D45Uuqq/vyV8NkL6ForOZwGf+aK/PzBR17J8WoLwg/+sLz8o/61nl7w1wjs+2v3ibRq0tdrHn71jjzx0+F1BgB6hfAH7prvyuGv61X9+Z/1xefU09q0P0h4OglQf5FfxwvluhkuqoU3WgL2/Uy+Nv/9MpyEcFfzc0fGMiGuryVqNTg3/D05+c02Tfq/e1v2L3yfPP8P+Kkf0GuEP3A3aQ335xbk3UeGfRO6dsPy/J/pBXxJbdodJJy4LfLTvn9UQ29x45uMLob73T+Wky7Qk6b8I396273+PnlQAzsKexfCh35cZqLA73J+XIhvOHVHnnTDR5//6eTnfeE4i73xb29HLQfvd/hJIIC14Q5/QMU63+HPsB+9T/b97iqv5ucOf0BlqPkDuHtWG/wAKkX4AwBgDOEPAIAxhD8AAMYQ/gAAGEP4AwBgDD/1AyoW/dRv6uf8K1SKn/oBlSD8gYpt3LjR/4VeIPyBtSP8AQAwhnP+AAAYQ/gDAGAM4Q8AgDGEPwAAxhD+AAAYQ/gDAGAM4Q8AgDGEPwAAxhD+AAAYQ/gDAGAM4Q8AgDGEPwAAxhD+AAAYQ/gDAGAM4Q8AgDG9C/+l07J940bZWNhNyKz/2Po1KxMbt8vpJf8y1HLZW3y+UktyentjmtuLJhjNX4l10LQcg7DeAAA9rvmPy5XlZVlu6s7IqP9ErcqG4KoULPuVLTI53NsAnZ0YlkmZkgWd3sKUyORzTQccs69Nypz/u6XZCdk4PClbroTzL7Kr7AFMVWXb03UEADbR7H83jT7lDgnmZbFntf9ZeWd6RKbePChD+nLooFxfvi4HoxeeC/Vd8yMy4l8WW5LTx6Zl3AX/mfAobfSMxMcTp90nAADrVb3h72t1p09vL26mzjU7TyTVP31/+4RMRM3b7t8J92/aM7ak44ze02ZwV1s97Wqyybii92dlwtVs52Q6V5vV5nz/uXyNU2vD6Tje8W92YfYdmR4/2gjjcHzROIOpZfrla9st5nFp0R1abJHNYdhnaKiLXHlzj3/dwtKMXJobl6cKmmeGxvbIyNwlmdH5ydfK09dFZdtqPWivbsajRdPidAYAoJQeh79+aSchFXSZoJ6WS/Kmb1Yel7nJ13wIxF/8abOzq3LO7woCYm5a5Kj2OyNnXpySkel3Gv1c0MxcmpPxNL3mZHLShV7UfH1Fxqd3ufDYLGfcOEei5vmkdqwBtUs/GE1zYWpedm1ParlufnbFteGo38Pzbs7bKVh2N/zIw5t9/+z4dNll+pgPOO03L1MLSb8tQW27zTwu3pS5kYfFfSCdZljUS6efk0t7Xux8ysWPJ5nTjKHN7vBiTm4u+teFRgvKVhWth3YhXjye0TPLcj3TnAEA6EY95/wzbckjsmfMf5FvfrjRHK215JEpeTH5aNSEHV4rMCJpjg6NyZ6RaXknCbqCmuv4lWTYUXlxakTmitIrN9zQwaMyntRyc/MT9Yv/bKFg2eM2cx/wLtjce2lRRKcEQkHAjp6R5eu+Kb/dPKq5STkWHExN70pqzLPy2qU98mbNoVlqPQAAeqoPzvkXN1MvLc77v1oJhxuSsT0jMu3Tf2nmkshU6xru0OYtIvOLviadF9bYd6W1+87zU0K+1hw1bzdPKz4wiK6u8/2yNfhW8xhxByhpwI++KFMj8fRmJ3aJHPUHEJ3oQdjcTWkdy8GB1xq0Xw8AgF7p2wv+omDoQlQDjpr+tclfGq0JBaIg37K5RRDma+xxc3O389OaD04N/uFLsidp2tdm8PgDXtwy0KjBB6c8Wsxj69DWCwHdIUNyMJGeR88fVHj5lpTA0uljMj2yR9oUb2nt1wMAoFf6NvyjZvC5SXktCaColpy/8C00Kk+Nu8A6PSMuUpvCafpY49z9a5Ph9QDB1fdNpw+CC9Fy8xOFYPxnaZng1PPqQeuF1szT8bVb1nbzOHRQjroyOJYMOPuaTEanCIIDCe3S8+i5q/lTQ3LwqB5w5A4OZifEHTcEvybQlozGvGiLS/YnhM2/bChcD6sYDwBg9eq54M91hTXOjPhir/mgtrrlSnjxWLPRp1xgTbrPFTRvj2+5KcPRtHfJ/NRCHHpRkM7J5HAyPy70rgfN7VHNvHGOOpyf59wBRvtz/s3LPjy5Ra4k5+6jJvnGZ449fCVtotcQvx7dE8APG138l8xHu3l0oz2zIHsuDfvh9ILCRr+u6HUGuVMPrujcAUO4DuLz9kmLQqZMmso2VrgeuhwPV/sDwNpscDXBFf/3+hc1pd+Uo5kLA/Xq+GG5ebRVLRd3B+sBAPpF/zb7r0LUXDz+1OpqugAAGDEY4R+d9/bN6lQrAQBoa7Ca/QEAQEcD1ewPAAA6I/wBADCm0mb/X/zFX/R/AQCAXjh8+LB88cUX/tXqVB7+e/fu9a8AAEDV7r333jWHP83+AAAYQ/gDAGAM4Q8AgDGEPwAAxtz18L/2wn1y330vyDX/uqzPzu50w+mw98kL0cDX5AX/eufZz+TszvjvtNt5Nhou/Fxx/zY+c8Mm493p5vnsC9G0wnlpdDvF9dIZlZ3597xoHstMtw0tv3j5Y83zstP1dxO99kL6ns5z/rPRe/nliz7my9LNZ2PWg/daTS+RG2e4/G0VzouTLoduM411GZZBZtioX2N7SJY9eR0NV2aclWpMI9OtYVso3gZ1eQIF5RJuF3Gn689/fg3i/TrosivI9ffzG65bJ78cyfoqLLPeraBIso2kXYn103o9BPMfzXfwHVVmvbfaH5LxFpVFm3XbWDYdV/AdFc3LWsZZ8L23hu26naZtLLcttbSW/T23Hl7YGS9v+/LMcdPfmU6sMf20KzUj1bvr4b/j9Tvy6qP+RRfuP3BVLu59VF69cUde36Hv7JAx93rvxRty9cD9cuDqHblzR8e9Vy66f+9cPRANp597/car8ujei1H/uLso+d8knNUNyf8d+0xe2D8jY+f8MFdfd+99HPdy9l7043n01aj/xWSE9x+Qq+71DbeQe199RC7PNrbOA1ebp9stLb94+WNhuUTzeeOIyDOn5NqO1+WOm6lHX43LJ/lsNF9u3rV4Xtj6jMiRG9FwOtjx/VoGriyPuOHkspxKt9dT7pUb7siB1tOLPui+4PYflwfTcT4ol/dnD4BayQ7nRrnf70RuOeLpve7WZGNdhmXw2exxkd3xsNq9vkO3hxtu3eyVI37Zo2VyZRENV2Kc1Sq3DXZD18OrjwbrwXX5/aqoXHTZk20gfv+cW/Hl1lF7jXnR8T/64Cb/vn737ZeZsXNxP93O0g0rpuslmcdkW434fSvqtPz8273S+juktdbrYYccSso52rDi7ygtm1fPdR5vy/0h2Zb8q4w26zb67onK023z/jsqWs5oGdcyTpHLuj6bxlm9ODuC7Wy3fvVkt6VCa9jfz7oMeDDJgHOH5EH/fvvyzDp7/GPZfSiY2F3erlvpUfgnRzduI7l21h85ZcN1JqkJJEeOXuZIuuWRnQsZN/zM2NX4C600PYrTnchtAJ02UBd4H+8+5Fasf+3scDu6fjnpDp/fcHa8flUa31ufyezlR+TQgUPyyOVZ9yqrsYx6FB33jd/bKTvdkWVTuWRaE7TLH6jkPPqgRF+9O3T6p4Lp+/nSedfli8Iwnun73Q5ybvfHMpOM+JFH5GP/Qjde97K1ZHp6kLD7nBxIx+l2iiONA6DmI/dG68KBq6780uHGSgejHoFvfekjOf/S1nScsfvl9XMPuu8pNw0tv+MPyrkwWNr4TI/Uo3l06+es23717+jovNV23Xhfh9Oj/EytKKNgG8zU0N00X/AtJiVrLFqrjr+M9cst1rpc8lw5BesoqqX46WgtPFqOZNhW8+mk278r6/2Xd2fKWvt1t5+q7D762exleWQsXrq2+4rT7juk9bptLSmDtPVChy34YipaD3m3PtX/N7cCNPaNeN8uuz+kwxWu39y6Lam7ce6WI3I8U/6Jlvt7p+26zXYWuv+AK5ePb0V/x9OKyy4df+H8Z3UezlX4bvmJ368HcOH3fAlunJcfORIM03q7Vo3tU79HwtbX6vUo/N0CuqOai3s/kpeOfxofwV50gZ+uwfPuvyNyw33mxsVH5KXk6M19cZySuIYQdVcPya1T+QLQHWe/yKHmAG7r/DOuQJ9x0y3ns1su8DZ1+4XlfTbrVviY203ul7FHLktm3/voJbeMR/xR3zl58Pj+aMOOa9QfudCN+2XKxR9ZxuVSVGN05bw13mDuc7X5j3ePuimr++WQC/T04FjDOZqv4uW7f5ML/GRDf/CQ7P54Rq65kNON91ByyBspnl5hmW1yA34a76DuKCGoHe6NWxJ8n9BnZ49H42wIp/eSe9WQ1KbSmkl4UOfK7dzuy7J166dyxL2fnVaLcWp46YFCVNZXZUwuy3k9Uo82tlbb9SZfc3pEjty44crtGXcQpP1yX7yF22C2tURrVg9+7FuYfK0rPrhqtHQ1tvt4GZ4p2Kjblkteso70IGlmLN3Wzm1y28tHSW2mzXwGzu6/LLtdzbZpveq4XVlvPS5yLrfjfpQcoESh6t/M0YPW5Duy7b7S7juk7bptLarluf125kG/3+qwM6eCQCpeD+n+FIVKfGBw6+NHZFMUIjcyNcUdr8evb2hNMnqnoXl/aNj04N54n2q1fjP7XzndjnPHod1x7b9Ji/297XZdbjtT17RcHolbmDItym78zd+Txft7p+EOnDsinx5PDqC7OI3pXZvJ1fpzwu1a3b/pkN8+3f734Keyv9sJdqHHzf7axPV6fATrCvb19PDHbfRuTeur6KjWH73pUVBaU4m6rfLS+TA83Qrcf0o27XZfqvu7PCqKmlxzG0RypOe6lz46L8/4vztUBDoKj+Z2jOWPvPfKoQN+beuXQOYo+tF0QwnLpbPGTnbnjgufy/vTZbh/dHdag++0IeYd0ObGZ7JHprHW02snqR1+dvYFOeU28qLvXO23/9Mj2ebfcHqraCZ79NGgRSNVPM5o3QUHJTtc+TVPr8V2vXdMdrh1qus4Od2QUbQNRgeKrmaQ1oyztQsNuhvuAGa/q+XOjJ3L1aDjZUhPOa1RvhZyv7Yc+b87zafSGnfU8hPOYsIfwGoT9v5gY9Hli7cj7bRJ+YXm/dqFth60ZjeX4n2l3XdIuXXbgjtISPdbx00ys9+2Wg8fuZDU/U7vfXZ59pq4Q8a4lUzLT0+BJF/uUavZoXTeEsX7g7olZ12NeHbUbYdF5b0qqxynW7dFtf92+3vL7brjdtYI8Wc+3d10INnaKr9D7teauh/u3Jh8utW3EpThttvjrmRalmXBdv3Z7CnZ77fdrS+Vraquzl0/59+OHimH5//iLlzx8ZfujgPaRB2cky4t2+QSH+nF04mOwv3fuj1lasFd0ab1j1wlz3/5uOrAR5dnfb+7IT6gSOc93TGvyczHu9OyLFq+ppp7VD6dWlga0yscZy5QtFnrlOgXQfMeoc2m2u9q6R26Azet6IvzqrawdLHT9lRuGyxBm4r1tMvHM7cKD3izp5xWQSfw4KZo/a2a1qpzzf1F9PRS1KLkX2fdH51TbTrk9fNXRufvkN5pWg+uhqwho7X9MVc7lk9norfTj6Sn5Vxt97g0HTC23R/cAc1lVyHu2DjZsuwKtqQ1jLNV7b/d/t5puy7mQ/zGDXn149VkwBq4A4GxvR+nZwGymt+8dupy+8pWvhx1H3pJL8Py221VR/Ut9FX46+G07gxlruCMarTHO5/TWTW3Y2qNtnE0G1+x3LGGGx25hhd2uRrBI5eD8ZyXU2f9SD7Tnd7Vxkc77W3dcOOcOZ8J8aj1YX/07eLfcfSLx9WQ0msONChzTVDlBNNLyiwdpwZCME79Irjlvgj8l1zjIks3jqgG4A40gn4lNoM2rskL2sQbfXG6A5Tk/H/cs6Vku0o+d+1U9jRD5e4fdWEY1Jp0m9DtzL+h21xUM3LBcu7B45lac57WvMu0wGQF26ALq6SVSH2m14X4v9vPp/s719wfrtvoCulgO3sprf3m+7maUNqvIWqxKruPtPkOWdu6dUGT7LdOu3lK18P9m+QRV2Za298Rld95Oe+bqWP+tNwLca2/seuV2B/2uoPajtt0sG7d2PUUZGN/j08BZnb3rscZ8JWMy/5lpOX+3ma77rA/pKJTJ9o0GR7U+2DWYXaWP8XbcjgXxju1LNJJf+YqUI9IvOgdylNr/UFlq0jhNrRXtxX3r87L8d7W/EXv7V9V9/rrr6+4sFu5c+PVFXfEq88MSDt3NB71cwcz8XuPvupe31h59VH/eu/FdNi9yXvy6Mqje19dueHev/Hqo/49Wdl70X3OvRcN68aj/dPxJF00fv3cxRV3/NR4P5lOrnM1/xVX88+97+ZvbzLdR1f2+mXQLpwf7aJ5CpfbTyddXjd89K/ObzqsG+fFeJyN93Q+Csol7W645WnMa34+tHvUDaNl0mqYtLvhyiaZji7/DX2v/TLsTcuj0WWnVzBO369pHSXzVLC9JP2y5dJYl/H2lFu32vl5zpdf+Lr9ON38XNzr50fXuW6PfltquV1nxxFNS4dx49H39l7Mzaefp7QL10OwnbXaJnQaRetdu3jfaF0uyTw1Ot0Gg3lJlz1ZFr+OtGsxn4XTS9ZtfrjcNtG2X9Rp/3gfT95rVS7pMrb4Don6tVq3rkvHk3RpPz8P6XS1zPLrKNuF6yHZrvSzyd+NrmDfbLM/pGWtyxqsy2h6ndZttBy+X7heVznORnk9uuJq436+G+NtKk/fr9X6S8umxXbW+B5KyjcZl59mft3q326ZstPzy+q6dHothouWx5VTOC/RcuowUdeqPHVe82Wf73TY7HatnQ6XTuvVuOyLxqOKMribjgf7rDt6JeytrpuO7x49et4qLwVVKrfzNs6Lrzeu9hJdBFfVqYh1Rmtrm9pcvb6ulV63/b7Poa98dk127r8lV3u4vfBgHyu0+clfBHLffbnm+76jzXGNUx7arbvgd6EQl7XrtLi7uEhyYPgyiC6Ezfz0aZ1bxbqNmoI/eikapvvTKjDn/h09Df6qUPMHAGAdoeYPAAC6RvgDAGAM4Q8AgDGEPwAAxvQk/DMPA2kluoK9/F3Xmh8S4YZNb77QeDhE0nX1CMXMgyT0it50xE58k4m4XzjN7mUeInEXZB5wknZlpu/LbDWXNodl6dZR/t4cbbVcD60fCdtem0fJXrvm12u2PNIHrkTrOviVRbI955YvecxzornMs+Pvjl8P+U5vPNI0Hb2xjJuP4Gr2ZL7CzzYehhMOF30sllu+5BGmId2OCzeNon06nR99v7E8yfCNeVtLOQHoVk/Cv9Sja+/Xe32X//1w+8c57mh6ZOqRB483vqA6PEKx8NGncR8XEKdE/ONI48c3+l6rkHmIxF2g98/u9NjXYr48/avyXHkFD+Xo5pG+qtV66PRI2FbaDXf/jh1y4HUtH/+G1/5Rne0f86zSe9VfjB8hHI3H9+te83Z9xz8bQKcTP6bUvx8997XEo5yvNv6Ox5d9pG+rR5iGdDsu/Gl80T7t5qfd41ST8rqb+wWAHjf7N47qfa3Ea9TiC472M7U/N1yJxzkW2ZHeZz57L/X8vea1ptfy0afXTsmnY/4BLjmZmle+NtpUe8ouZ/HjjJNakd7utOAxyC3KJZ6P1o83TWgNWN9PHjfa+VGWDen6ivq3mc/o4STFj/TtNL1266HVI2E7LXur4VZNb3fb4jHPHbXbJkpt8/oZLZPs9pxR5lHOTfKPaHUHM8nNy8NHmGbuNaFdMP9O2316lRqPN3VlUvLxuwDK6V34t3h0rdKaQ/HRfrbmWPZxjkX0vslNj5d18o9QbPfo08/02GIm+AJKEt59EbZ79PC1U3r3EL8M58b0QVSBFo8z1i91917xY5Bbl0tcA3QTKHq8aaT4caOdHmUZyj7is/V8tnukb6fpdXwErQ+f8JGwnZfdKRhutdbymOfW20SJbb7l46gbTzgr+yjnQsEjWls+wtS3gsTz2LyttN6nVTifJe+n79Zbq8fvZg68gy48/QKgvR7W/Ns9uraFtT7OMfqSjPsff1AfE+nfT7gvlOZHg7Z261MX1O4bN37K0lU5dGs2qtW0e2yo0gfpfPyM76+pczFsCi1+nHHDo82Pi+1YLu0eBRw3DV/seB6mSLtHfBbMZy/58Mk/Erb9sjsth6uYHmS0GX/LbaLEo3LdEVFh4CbrNg7kih7lvJZHmLYUzGfJ00ntHr+bnCrId6VaYABEetrsXz3/JdLqcY7BudHCL4IuHg2aePTVsJn306hFtONjQ10YJrWkGxezTxKry6oe+1r2EZ9emUf6rlX7R8K2ttrh3BL4f4uXr7Q1bxNtmvsj8QF2On/uoKfoUc6FWu0XbR9hWh9q/sDa9TD8V/Ho2jU9zrGzrh4N6uw49KrI5Vn/Jf2Z+458MA7Cto8e1nPibr58v/u7O9YoVrZcStAvzkYFtcMjMEs94jPQ6ZG+q3rkZrtHwraz2uHaPKqz3WOe/eNb4366vYePVW6zTVS2bt1wZR7l3ETn1e8X2nqh6zpYvsYjTO+udo/fpeYPVCB8xN9au+SRvq/qYw5bPALzTvBIxUYXPCpxVY9zzI0zebRnpit6hGLBvOSGvfFq8LjH8NGKLR8bqtPJPgYyGS5dhuhRoblHkRY8xjN95GQ0veJyaZRx9vGYOs5Gv2yXLkerR1km5aJ/5x/x2Wk+o+X3/fKPaO00vbCL3vfDtXjsa7tlbzecdulnky6zbeSGS9/Xzk2nxWOew+npY44bw+j7xdtEfrjsON370Xu+C8ZZtG6zj1bWruBxscH6jLtgXjo+wjTp8uPNzWcwbHYdNT4XbzOth4vGm99eov0mmSYdnd2OR/qiD2mtfoAe6YsC+suDu/yIW73y3/CjlYEQD/ZBH9JTMtnmWIJ/APhfTcTn1zudSqhI8pNQ7XSSZS9aBNARNX8AANYRav4AAKBrhD8AAMYQ/gAAGEP4AwBgDOEPAIAxhD8AAMYQ/gAAGEP4AwBgDOEPAIAxhD8AAMYQ/gAAGEP4AwBgDOEPAIAxhD8AAMYQ/gAAGEP4AwBgDOEPAIAxhD8AAMYQ/gAAGEP4AwBgDOEPAIAxhD8AAMYQ/gAAGEP4AwBgDOEPAIAxhD8AAMYQ/gAAGEP4AwBgDOEPAIAxhD8AAMYQ/gAAGEP4AwBgDOEPAIAxhD8AAMYQ/gAAGEP4AwBgDOEPAIAxhD8AAMYQ/gAAGEP4AwBgDOEPAIAxhD8AAMYQ/gAAGEP4AwBgDOEPAIAxhD8AAMZsWF5eXvF/r9k999zj/wIAAL3yxRdf+L9Wp9LwBwAA/Y9mfwAAjCH8AQAwhvAHAMAYwh8AAGMIfwAAjCH8AQAwhvAHAMAYwh8AAGMIfwAAjCH8AQAwhvAHAMAYwh8AAGMIfwAAjCH8AQAwhvAHAMAYwh8AAGMIfwAAjCH8AQAwhvAHAMAYwh8AAGMIfwAAjNmw4vi/AQCAAdT8AQAwhvAHAMAYwh8AAGMIfwAAjCH8AQAwhvAHAMAYwh8AAGMIfwAAjCH8AQAwhvAHAMAYwh8AAGMIfwAAjCH8AQAwhvAHAMAYwh8AAGMIfwAAjCH8AQAwhvAHAMAYwh8AAGMIfwAAjCH8AQAwhvAHAMAYwh8AAGMIfwAAjCH8AQAwhvAHAMAYwh8AAGMIfwAAjCH8AQAwhvAHAMAYwh8AAGMIfwAAjCH8AQAwhvAHAMAYwh8AAGMIfwAAjCH8AQAwhvAHAMAYwh8AAGM2rDj+71ps2LDB/4VQ1aulrnIuuxxl56+u8dWlruWoenuper2VZa1c6lreutbvoKh6vZVBzR8AAGMIfwAAjCH8AQAwhvAHAMAYwh8AAGMIfwAAjCH8AQAwhvAHAMAYwh8AAGPWzR3+ap7NytR1x6yqy6/qO3VVvbx1qauc+738+n37q1rVy1u1qrersuqabl36eXmp+QMAYAzhDwCAMYQ/AADGEP4AABhD+AMAYAzhDwCAMYQ/AADGEP4AABhD+AMAYMzA3eGvrjt/VT1/dS1vXZvDoCyHNVVvz2UNynTr2u4pv7Xp93Iug5o/AADGEP4AABhD+AMAYAzhDwCAMYQ/AADGEP4AABhD+AMAYAzhDwCAMYQ/AADGcIe/itR1x6dBKb+q1bVZ9/v66Pdyqcug7B/9vl31+/5RVl3LWyVq/gAAGEP4AwBgDOEPAIAxhD8AAMYQ/gAAGEP4AwBgDOEPAIAxhD8AAMYQ/gAAGMMd/irS73d8qquca968Oqp6e+n37bQudW0HdZVzXftvXer63uj39Vv18laJmj8AAMYQ/gAAGEP4AwBgDOEPAIAxhD8AAMYQ/gAAGEP4AwBgDOEPAIAxhD8AAMYM3B3++l2/L29dd8wqq2y59Pudv8qytr30e/kNyv5Rl37fnqvWz8tLzR8AAGMIfwAAjCH8AQAwhvAHAMAYwh8AAGMIfwAAjCH8AQAwhvAHAMAYwh8AAGPWzR3+rCm7Wuq6gxnjK8b4ijG+YowPqmz5VYmaPwAAxhD+AAAYQ/gDAGAM4Q8AgDGEPwAAxhD+AAAYQ/gDAGAM4Q8AgDGEPwAAxtR+hz+sTdV34CqrrukOiqrvdFZXOXMHuGJ1LW+/Txf9g5o/AADGEP4AABhD+AMAYAzhDwCAMYQ/AADGEP4AABhD+AMAYAzhDwCAMYQ/AADG1H6Hv6rvENbv6rojWtXjq1pd67ff73RW1/qoWl3bc1n9vt1XXS79vl1ZW791oOYPAIAxhD8AAMYQ/gAAGEP4AwBgDOEPAIAxhD8AAMYQ/gAAGEP4AwBgDOEPAIAxA3eHP+7kVKzqcql6eeuav37f/vq9nMuqq/zqMijrDcWqXr91oOYPAIAxhD8AAMYQ/gAAGEP4AwBgDOEPAIAxhD8AAMYQ/gAAGEP4AwBgDOEPAIAx6+YOf3Wp685kg3AHqV4oW85Vl19d22m/bwfW9l/Gd3f0+3ZVVl3lVwY1fwAAjCH8AQAwhvAHAMAYwh8AAGMIfwAAjCH8AQAwhvAHAMAYwh8AAGMIfwAAjKn9Dn+4O6zdMavf72BWtbruAFe1utYHd5QrNij7UdXrt+r9qI7yo+YPAIAxhD8AAMYQ/gAAGEP4AwBgDOEPAIAxhD8AAMYQ/gAAGEP4AwBgDOEPAIAx6+YOf3XdoamsQbmDVL+Xc1l13VmrrvVR13LUpa7tqmp1rd9BUfV2WvV+WVYd65eaPwAAxhD+AAAYQ/gDAGAM4Q8AgDGEPwAAxhD+AAAYQ/gDAGAM4Q8AgDGEPwAAxtR+h79BuFOSGpQ7dVW9HP0+vkFR9X5Ul6rXW13bX1n9vt33+/KW1e/lXAdq/gAAGEP4AwBgDOEPAIAxhD8AAMYQ/gAAGEP4AwBgDOEPAIAxhD8AAMYQ/gAAGFP7Hf7KGpQ7PtU1PhSrq5xZv8XKlktZda23sli/xcqWy6CMrw7U/AEAMIbwBwDAGMIfAABjCH8AAIwh/AEAMIbwBwDAGMIfAABjCH8AAIwh/AEAMGbd3OGvLGt3cio7f2X1++ZQ1/qoupzrwnZarK75q3p7rms7rWt5y6qrXMqqennLoOYPAIAxhD8AAMYQ/gAAGEP4AwBgDOEPAIAxhD8AAMYQ/gAAGEP4AwBgDOEPAIAx6+YOf3XdGaqsfr+DVFlly6/q9VFX+fX7/FWt6v2j6nKpa/+t2qDsH1Wra/32+/dLHaj5AwBgDOEPAIAxhD8AAMYQ/gAAGEP4AwBgDOEPAIAxhD8AAMYQ/gAAGEP4AwBgzLq5w19ZVd9Zq9/VtbxV3zGrrvkblOmWVfX81bUdVD3dqlF+xayVS9np1oGaPwAAxhD+AAAYQ/gDAGAM4Q8AgDGEPwAAxhD+AAAYQ/gDAGAM4Q8AgDGEPwAAxtR+h7+yd1Sqazb7/U5YVatrecuqulz6ff0OyvwNynqrWl3lwnTvjn6eP2r+AAAYQ/gDAGAM4Q8AgDGEPwAAxhD+AAAYQ/gDAGAM4Q8AgDGEPwAAxhD+AAAYs27u8FdWzYtz19VVflXfuYrxFatrfGWVnW7Vqi6XqvX7eiur6vIblO2vrLrWWxnU/AEAMIbwBwDAGMIfAABjCH8AAIwh/AEAMIbwBwDAGMIfAABjCH8AAIwh/AEAMKb2O/xVreo7ZvX7HaTKGpTVXNf6sLa9VK3q8qt6e+737aqsqstvULbnupa36vVbJWr+AAAYQ/gDAGAM4Q8AgDGEPwAAxhD+AAAYQ/gDAGAM4Q8AgDGEPwAAxhD+AAAYs27u8Nfvd66qqxjrKpeql7ffp1sW29/aWFuOqqdbVtXz1+/rjflrRs0fAABjCH8AAIwh/AEAMIbwBwDAGMIfAABjCH8AAIwh/AEAMIbwBwDAGMIfAABj1s0d/sqydsesfr/DVV2q3g4GZf0OyvZX13KUVdd06zIo219d20EdqPkDAGAM4Q8AgDGEPwAAxhD+AAAYQ/gDAGAM4Q8AgDGEPwAAxhD+AAAYQ/gDAGBM7Xf4q/oOTVVj/or1+52wqp6/qpVdXra/YoOy3Zdlbf2WZW19VImaPwAAxhD+AAAYQ/gDAGAM4Q8AgDGEPwAAxhD+AAAYQ/gDAGAM4Q8AgDGEPwAAxtR+h79+V9cdpPqdtc2G7eDuqHq7qusOdVVvL2Xnj+10baou537+nqTmDwCAMYQ/AADGEP4AABhD+AMAYAzhDwCAMYQ/AADGEP4AABhD+AMAYAzhDwCAMQN3h7+q77xk7Q5hVev3O2FVXc51qXp7rku/70dl1bU+qp5uv68PtvvVo+YPAIAxhD8AAMYQ/gAAGEP4AwBgDOEPAIAxhD8AAMYQ/gAAGEP4AwBgDOEPAIAxtd/hr647TVWtrjtI9Xu5VK3q7aXfx1dWXdtfWXUtb137R13bVVn9Pt1+1+/bXxnU/AEAMIbwBwDAGMIfAABjCH8AAIwh/AEAMIbwBwDAGMIfAABjCH8AAIwh/AEAMKb2O/yVZe1OU1Uvb13KlvOgrN+61lvVyzso21/V+r2cq97f6lreqpejav1ezmVQ8wcAwBjCHwAAYwh/AACMIfwBADCG8AcAwBjCHwAAYwh/AACMIfwBADCG8AcAwJh1c4e/qvX7Ha76XV2bTV13CDO6m1Sm39dbXftlXfNX9fbc7+u3rH7fDqpEzR8AAGMIfwAAjCH8AQAwhvAHAMAYwh8AAGMIfwAAjCH8AQAwhvAHAMAYwh8AAGPWzR3+6rrzUtWqvsNV1fp9/sqqa7Ou+s5kg7Ldl1V1uVS9HVjb7vt9e+73/ajq9VElav4AABhD+AMAYAzhDwCAMYQ/AADGEP4AABhD+AMAYAzhDwCAMYQ/AADGEP4AABgzcHf4q/qOT4NyB6mql7esqsulrs2138uv37fTsliOten3/aOsfl+OqtdvHctLzR8AAGMIfwAAjCH8AQAwhvAHAMAYwh8AAGMIfwAAjCH8AQAwhvAHAMAYwh8AAGMG7g5/ZVV9h6ayqi7uuu5IVbWq56/fx1eXQSnnsqpeH3XN36CUS79vV/2+vVSJmj8AAMYQ/gAAGEP4AwBgDOEPAIAxhD8AAMYQ/gAAGEP4AwBgDOEPAIAxhD8AAMasmzv8Va3f7wxVVtWrr9/vcFXXerNWzlWrq5zL6vftqt/Lr6yqt/uy+r1c6kDNHwAAYwh/AACMIfwBADCG8AcAwBjCHwAAYwh/AACMIfwBADCG8AcAwBjCHwAAYwbuDn9V30Gqrjtw1bUc/a7f7xA2KHcws7Y9D8r+Zm37K6vf9486UPMHAMAYwh8AAGMIfwAAjCH8AQAwhvAHAMAYwh8AAGMIfwAAjCH8AQAwhvAHAMCYgbvDX9WqvpNTXXeG6vc7ZpXV73fW6vf1y3a6NlXPX1l1rbe6toOy+n07ratcyqDmDwCAMYQ/AADGEP4AABhD+AMAYAzhDwCAMYQ/AADGEP4AABhD+AMAYAzhDwCAMevmDn913VmrrEG5w1XV5Vz1dKsu537frqrW79tBWf2+3qpe3rIGZT+yNn91oOYPAIAxhD8AAMYQ/gAAGEP4AwBgDOEPAIAxhD8AAMYQ/gAAGEP4AwBgDOEPAIAxtd/hz9odqQblTljWpou1qWv/KKvq7aqsur4PrG33g/J9VSVq/gAAGEP4AwBgDOEPAIAxhD8AAMYQ/gAAGEP4AwBgDOEPAIAxhD8AAMYQ/gAAGFP7Hf6wNlXfaarf7zhW9eZa1/KW1e93EhuU+atLXftHv2/3ZfX7+i2rjvKj5g8AgDGEPwAAxhD+AAAYQ/gDAGAM4Q8AgDGEPwAAxhD+AAAYQ/gDAGAM4Q8AgDG13+FvUO7QVLWqVwt3wipW153O+n26/b4cVau6XMqquvzqMijbX9Xq2p7LoOYPAIAxhD8AAMYQ/gAAGEP4AwBgDOEPAIAxhD8AAMYQ/gAAGEP4AwBgDOEPAIAx6+YOf/18p6RusLzFyi7voJRf1Xcmq2t5+319sL8VG5T9rer9qGr9vF1R8wcAwBjCHwAAYwh/AACMIfwBADCG8AcAwBjCHwAAYwh/AACMIfwBADCG8AcAwJiBu8NfXXd8qnr++vnOUMracpRV9fLWtT1Xrd+3g7Lq2l4GZTuoS9XlPAjbMzV/AACMIfwBADCG8AcAwBjCHwAAYwh/AACMIfwBADCG8AcAwBjCHwAAYwh/AACM4Q5/Fen3O0j1+52r+r1cyqqr/KpW9foYlPH1u7qWt+rtvt/XR13baZWo+QMAYAzhDwCAMYQ/AADGEP4AABhD+AMAYAzhDwCAMYQ/AADGEP4AABhD+AMAYAx3+KtIv9/xqepy6fflLavftz+2g8HG9lKs6ulWbRC2e2r+AAAYQ/gDAGAM4Q8AgDGEPwAAxhD+AAAYQ/gDAGAM4Q8AgDGEPwAAxhD+AAAYM3B3+Ot3LO/dUXX59fsdx8qqq1zKTreu/aPfp1tW1fNXVl3bQV3qKucqUfMHAMAYwh8AAGMIfwAAjCH8AQAwhvAHAMAYwh8AAGMIfwAAjCH8AQAwhvAHAMCYdXOHP2uqvhPWINyRqk513cGs6vU2KPvboJRzv++X/b7dV7099/t2VSVq/gAAGEP4AwBgDOEPAIAxhD8AAMYQ/gAAGEP4AwBgDOEPAIAxhD8AAMYQ/gAAGFP7Hf4AAMDdRc0fAABjCH8AAIwh/AEAMIbwBwDAGMIfAABjCH8AAIwh/AEAMIbwBwDAGMIfAABjCH8AAIwh/AEAMIbwBwDAGMIfAABjCH8AAIwh/AEAMIbwBwDAGMIfAABjCH8AAIwh/AEAMIbwBwDAGMIfAABjCH8AAIwh/AEAMIbwBwDAGMIfAABjCH8AAIwh/AEAMIbwBwDAGMIfAABjCH8AAIwh/AEAMIbwBwDAGMIfAABjCH8AAIwh/AEAMIbwBwDAGMIfAABjCH8AAIwh/AEAMGbD8vLyiv8bAAAYQM0fAABjCH8AAIwh/AEAMIbwBwDAGMIfAABjCH8AAIwh/AEAMIbwBwDAGMIfAABjCH8AAIwh/AEAMIbwBwDAGMIfAABjCH8AAIwh/AEAMIbwBwDAGMIfAABjCH8AAIwh/AEAMIbwBwDAGMIfAABjNiwvL6/4v4G+cs899/i/0K2vfe1rcuLECf+qGqyP1evF+gDWgvBH39Kw+fa3v+1foaxvfetb8lu/9Vs9CX/WR/d6tT6AtSD80beSsPnSl77k30EZb7/9dk/Dn/XRnV6tD2AtOOcPAIAxhD8AAMYQ/gAAGEP4AwBgDOEPAIAxhD9suHZY7r33Xt8dlmv+7V65fXZnMD3XHQ6neE0Oh/1cl+k98PLLv1PO3va98m6flZ3t+neBdQI0EP4YfBogXxF56/PP5XPtbjwkt3r4xa4hs/XocGN6rntLvpILm8fk2A3f/629cv4rvT8g6S+N5b9xTOToV89KYb4/cECufn5VDjzgX7ek4d36IIF1AmQR/hh8S5/Ih489JEP+pQbKgR3+76q5A42vRiFzQsJJ7DhxQ44tHC8Opx1Pyl5ZkFsV1G7XowcOHJG9H16Wb/Rq+VknQBPCH4NPv8g/PCpfLfiWv3Y4aOqNaoG35ezOXJOvnjLY6WumUTN0MkxBzVAPNPY+mQmZ2AOyafhDuVyUcNfelfOP7ZYvd6zdWhDX4A8f1iZ6Ld+wRu//Pts4hbMz6qHvf0XOy4dydGuyHgOsE6AJ4Q8DdsiJz2/I7stbo8AIs2HHiaQZ+C3Ze15rgQ/IgSN75fy7jQ9de/e87D1ywEWFC5mtl2V32jQscjx3QHH71oL/q9nQQ4/5v5QPKg2xd5+Uz6/q+G26ffZ4Lmg/lIWHfsmVcbamHnPl9okrL980/+HRU26t6Pp16y9ptj+RHYp1AjQj/GGEC/WrLhhuHJOFrwQHAOmFgFpz9LSl4Py7LlTUNXl34Zgc0jy5fUsWwoD4iqtrfrIUfSrxwKZh/1cnPqjc/DyWTsuSRjlG5+IzQfuY7G5Z5XblFq0Mp2TTPOsEaEb4w5YHDsgvHXssrtlnLgS8Ie5tb4ccOrYQ1eq1Vrqw+8tBMO3NXDSWr2W6qmSL4Lgt37gszaEWzU88LVuCi+sKa/gVYp0ATQh/DL5rZ4OLuvQL/0N57KGh7IWAt78h7u3UA1/eLXL5lJy6PCxHkkvNH9gkw3K+fSi44Diy97x8JblGIKLXEWyVo8NHCq9a1wveho9+tfjCM6wd6wRoQvhj8O3YJJ8kTfX36hf+W3JVv/F3HJJjclS26vtf/USGw9O/D3xZdrugPz8cXii2Q05Ev0uLrx2IuvzFZY5eR3Bj9+V4vMk0Pwyaq5toS0Obn7uhhB3y5F5/KoF1AnTEI33RtwbqEbJ6imHrUfkwau4u87v11eORviXdpXXCI33Rj6j5A3fDA3qzGj2/3dvgRxdYJzCM8AcAwBjCHwAAYwh/AACMIfwBADCG8AcAwBh+6oe+pT8tu3Dhgn+FbvTqp36sj9Xhp37oN4Q/+tbhw4f9X1iNqsOG9bE2hD/6CeEPAIAxnPMHAMAYwh8AAGMIfwAAjCH8AQAwhvAHAMAYwh8AAGMIfwAAjCH8AQAwhvAHAMAYwh8AAGMIfwAAjCH8AQAwhvAHAMAYwh8AAGMIfwAAjCH8AQAwhvAHAMAYwh8AAGMIfwAAjCH8AQAwhvAHAMAYwh8AAGMIfwAATBH5/wETZSnFlYy0YAAAAABJRU5ErkJggg==;" parent="1" vertex="1">
          <mxGeometry x="366" y="120" width="195" height="390" as="geometry" />
        </mxCell>
        <mxCell id="xKx9XlLuNAV2VJ_ILK_Q-10" value="" style="curved=1;endArrow=classic;html=1;rounded=0;exitX=0.5;exitY=1;exitDx=0;exitDy=0;entryX=-0.018;entryY=0.276;entryDx=0;entryDy=0;entryPerimeter=0;strokeWidth=3;dashed=1;strokeColor=light-dark(#000000,#7A7A7A);" parent="1" source="pTmIeidkta4TC5YCTn2a-1" target="pTmIeidkta4TC5YCTn2a-3" edge="1">
          <mxGeometry width="50" height="50" relative="1" as="geometry">
            <mxPoint x="430" y="450" as="sourcePoint" />
            <mxPoint x="140" y="360" as="targetPoint" />
            <Array as="points">
              <mxPoint x="170" y="320" />
              <mxPoint x="290" y="330" />
              <mxPoint x="310" y="190" />
            </Array>
          </mxGeometry>
        </mxCell>
        <mxCell id="xKx9XlLuNAV2VJ_ILK_Q-12" value="" style="shape=image;verticalLabelPosition=bottom;labelBackgroundColor=default;verticalAlign=top;aspect=fixed;imageAspect=0;image=data:image/png,iVBORw0KGgoAAAANSUhEUgAAAnQAAAGmCAYAAAD1dxl2AAAAAXNSR0IArs4c6QAAAARnQU1BAACxjwv8YQUAAAAJcEhZcwAADsMAAA7DAcdvqGQAAEBfSURBVHhe7d1bqFxXHcfxqQ3Vlgj1XhPb0hPRB5UEak0iKigmUjUnXkDQEymSVLyAckIjJuCDLykYTPBBX5IgticP9kWSILWnomClJ9UHT7yVCol4SRpsIWKxVklTZ03Wb/b/rPnPOnsuycya8/3An85e67/X3vt07b3WTGb2vu6lpgYAAACK9bL4XwAAABSKCR0AAEDhmNABAAAUjgkdAABA4ZjQAQAAFI4JHQAAQOGY0AEAABSOCR0AAEDhmNABAAAUjgkdAABA4ZjQAQAAFI4JHQAAQOGY0AEAABSOCR0AAEDhmNABAAAUjgkdAABA4ZjQAQAAFI4JHQAAQOGY0AEAABSOCR0AAEDhmNABAAAUjgkdAABA4ZjQAQAAFI4JHQAAQOGY0AEAABSOCR0AAEDhmNABAAAUjgkdAABA4ZjQAQAAFI4JHQAAQOGY0AEAABSOCR0AAEDhmNABAAAUjgkdAABA4ZjQAQAAFI4JHQAAQOGY0AEAABSOCR0AAEDhmNABAAAUjgkdAABA4ZjQAQAAFI4JHQAAQOGY0AEAABSOCR0AAEDhmNABAAAUjgkdAABA4ZjQAQAAFI4JHQAAQOGY0AEAABSOCR0AAEDhmNABAAAUjgkdAABA4ZjQAQAAFI4JHQAAQOGY0AEAABSOCR0AAEDhmNABAAAUjgkdAABA4ZjQAQAAFI4JHQAAQOGY0AEAABSOCR0AAEDhmNABAAAUjgkdAABA4ZjQAQAAFI4JHQAAQOGY0AEAABSOCR0AAEDhmNABAAAUjgkdAABA4ZjQAQAAFI4JHQAAQOGY0AEAABSOCR0AAEDhmNABAAAUjgkdAABA4a57qSm+Bor10EMPxVf9ec973tNYs2ZNXLoi1+Zdd93VuOOOO1qvlfepT32q9d/AK8vJ5af7MTU11XjnO9/Zeu3tY9rG+fPnG7/85S/j0hW33HJL433ve1/rdZ1t33zzzY2tW7e2Xnvb7MWqVasan/jEJ+ISAGAYRjKhG3RAYPBl8E1dd9118VV/Tpw40di2bVtcuiLX5pEjRxo7d+5svVaePZW8spxcfrofu3btahw+fLj12tvHtI1wbNu3b49LV4T+8cgjj7Re19n2+vXrG4uLi63X3jZ7sXr16sZzzz0Xl8bfoOcQ1yuuV6lBj5M+RZ9yNS/i11zY7CDRHKBiSxUvT9EcfGNWlWd5ZTm5fNUpmoNvrPH3MXX8+PGOnGbHjLX1tt0cfGOJv81eojn4xpbGm7fvvQR9ij7VjXcMvQR9i76V8va9l6BP0ac8fIcOE6XZp3sKT/gEKkQuP3xKluZpOYTYsrQu59ChQ7Xyte0HH3wwlnRu0346p3x9OheoTBYWFtrrqk6fzlmqqxsAgKtnpBM676KfC0868Hj5DL4MvsCgvPMkF570XPXyuV6tnOuVdyy58KR/Ty+fPrUy+hSf0GEiPfbYY63vjnWLOrz86enpjvDa9PIUnrRu3bp1S9axdctJ13vXu94VayrPPPPMkuNL978Xzz//fEdbNgAAV99IfhQRZtKBNh0G34sXL7ZeezSYab0wSOgL7Co7fvx467+B8tMvggf6IrutU77HtitaV3Vhf44ePdp6LRrIwjsjfYFd5ubmGp/97Gdbr9NtX7hwofGrX/2q9Vp/nzD4hnchltYL5e9+97tbr73/lenfOgy+P/3pT1uvPenfupQvsKfHuWnTpsYTTzzReu1RXq5PWd7fVnrN75e2s1yfSrcdjk19VnXz8/OND33oQ63Xorpe+9TZs2dbE9BulKf1SulTkh4v16sK16v+0KfoU1dF8yCvubBZu+mNGze2y7wQLTc7Siypymzk9JrfL7Xd7MyxpPLggw923XbzBOmoe+SRR9plad3jjz/eUWaldWfOnGmXeSFaLuULoen+06cq9KnBpMdB36rQt/qT7j99qkKf6h//5Ap00Tw/2hHerXWLXnnr2fZC7N69O9ZUtC/Ni39Hvt7tBirzqC79dK4b5W/YsCGWAADG0cRM6Bh8GXyBUnC94no1bPQp+hSf0AEJ76KoMgk3FlaZF2LbSNuyZSn7q7E0wncD7bbSEOXb78rUydf3UQAA5Sh+QqdBSYNRiHSgYvAFMA50Huv8DZGe21yv0Av9rfU3DpH+/elTKwOf0GEi3XnnnY33v//9XaMOm//zn/+8FfLUU0+1y9K6wCtL2fbFlqUh4dE4vbT/jne8I5ZU+2VD7LbSCI8O6ubGG29011EAAK6+sbhtyZe//OXGk08+2Xrt+dnPftb6r9YLP4dOn7v5gQ98IL5qNL7xjW+0/quyPXv2NO6+++7Wa7EDjQY124ZoH22d8nODlXI+/OEPN+67777Way9fx6S6Z599tvG73/2u9VrHbWk/ctsOt5BIn/Wp43j66acbMzMzrdee9G9dyk+20+OsK9enLOXl2G3n8r19rLP/Xpt12grHZt/1dpPbtlVnXz1ar5Q+Jenxcr3iejUo+lSFPjVEzYO85sJm+9m01mt25ljiU14uLK9e4cnViW0jl5/W2Z9s56KuXvNF65Xyk+1Bj5M+ld+21Wu+aL1S+pQMerz0rfy2rV7zRetxvbpCebmwvHqFJ1cnto1cflpHn+of/+SKiRLeVfUSnlxd85xphW7OGajMtqsy2b9/f0deTu5ROuFGnWlb9ldjOVrPe5SO2rLfSVGZ96sx1dUNAMDVM9IJnXfRz4UnV6eBisGXwRcYlHee5MKTq9O5zfVq5VyvvGPJhSdXp78/fWpl9Ck+ocNE0Eneb+S+PxcoTyf75s2b22WiZa9s7969saSzLe/iMTs7286rIzxKJ21Ly8t9f0552t63v/3tdplHef1GSd+fA4BSjGRC513kewkGXwZf4FrxzotegusV16uUt++9BH2KPuXhEzoAAIDCMaHDRMi9Q8vReidPnowlvrT98L2QtMyjHBti3wWKl6/I2bFjx5L2bJuW2grvanN5qdOnTy/ZlxCeNMcGAODqGcmErt8LvNZj8M1j8AWGp99zQutxvcpbiderfvdb69Gn8lbqGMgndJhImzZtck9ShegiYb+TorJcvg2bl+aL96sxG7a9EAcPHoxr1mO/k6LwqH37qzHRenUfpWO3pfBomwCAq2csJnQMvgy+QCm4XnG9Gjb6FH1qGPiEDhPlD3/4Qyv+85//xJLK2972tnYoT+H9ksnmKzx16i5fvtzeVh2vec1r2usq5OLFi9m20vxXvvKV7TKt95e//CXWVpRzxx13xBL/b6CoK7evAIDhGOmzXH//+9+3/vuZz3ym8dvf/rb1WuyA8cMf/jC+uuK2225rDVLW29/+9viqovYt5dkBRn8C1X36059ufOxjH2u99tpN/2QPPPBA41vf+lZcukLtf/KTn2x885vfbL322tJxKj8cVzi+QMcdniV3++23t17rb6f1nn/++caf//zn1uvcIFt3QNXfrJcBexx0e7dl2f9vab73bMRe2TbTPrJv377G/fffH5c61TkN6xxjoLaUPz093Th+/Hjrtcq2bt3afterMq23sLDQfteb26+6+yN1jnEc6Ti5XnG9Ghb6VIU+NUTN/zHXXNjscmGldcs9x64O215q7969S+rTqMNbzwvRcnPwjSVVWXPwjSVVmTz++OMdZR7l1I3SeMeQhpXW0aeq9ehTS3nHkoaV1tG3qvXoW1d4x5CGldbRp6r16FMV/skVE6HZl5cNK63zPp0L7wR7CdueysR+J8UL0Xq7d++OJVWZJ9eWhE8f0zbm5+e7tmtvQqoc71E6dpsKj+rUVvrJAgBgCJoX2okQDqWXsLyyOrTe7OxsLMnvR46XnwuP6tavXx9L8mx7CtHy6tWrY8nKY/8udcLyyurQevSpyWb/PnXC8srq0Hr0rclk/y51wvLK6tB69KnxwCd0mCj6FMiGJ82x93VSWfP8aEfqyJEjS+q9nG7UvpVus+6vxrReuK9Tyu5bGuETOlGZR3WLi4uxpNPZs2fb+yFr1qxpr5vWAQCGb6QTOl3obXjSHAZfBl/gWtO5YcOT5nC94nrVjfbfhifNoU/Rpzx8QoeJ8Ne//rUV8oY3vKH1Syn9Wqob5dx4442xpCrzqO5///tfxza1HKJOG5bKbBuKHK0XbnMi6XrhFi62vRD/+te/OrbpseukeVo+f/58LKn255ZbbmnXq0zxpje9KWYDAIZlJLct0aCgnyGHwfflL39567V3fyzNlsNgEBw9erTxwQ9+sPVabdj10vyvf/3rjY985COt1yrTPgTvfe97W//1tu21r7LHHnus9V9LdR5tO/wc/Dvf+U7rtfZDdWHwfeaZZ1qv5de//nX7S/LapvIte0ySHm/4r45Xda997WsbP/rRj1qvVSc33XRT48knn4xL4yt9R3Xq1KnGxo0b41In5dft/ml+eJRO6IeByuw+9HtapcexHG876b6GH0Vs37699Vq2bNnSfteb+1t4++Mdr6guTPLWrl3beu21WxKdO1yvqv1QHder/uj46FPVfqiOPjWA5sX2mgubtdEcfGONT3l1pfk7d+7sKNOyLeuVbaNOeNK648ePL1knRHPwjbX5v4VdJ83L1Z07d66jrDT2uELQp6o6+tRg7PGFoG9VdfSt/tjjCkGfquroU/3jn1wxEZp9uRViH6UjWg6hfC1730mxIVrWp3NBmhOkZeHGwipL6wKvbFBqM+yrjlexZ8+ejm1q2UYdU1NT7Xa13l133dVRBgC4ekYyodOFXhh8l+6rjlfB4AuMjs4N4Xq1dF91vAquV8vT/gt9aum+6ngV9Kl6+IQOE+V1r3tdK1atWhVL8pSv7690o7xcWF5ZKnxPRJEKP9KwbduwN+bV+uFHDqI8+e9//9t1O0Ga7wl/T+WpLS2/+tWvjlmV8OzadJtafvbZZ2MJAGBYRjqh04DA4MvgOyz/+Mc/WnHnnXfGkjzlh2eb5igvF5ZXlnr961/fjtQXvvCFJW3bsLcI0Ppf+tKXYknntsMzW7ttJ0jzPeG5hspTW1oOX1hOXbhwoWObWrYP/y+JziGuV1yvhkXHSZ+iTw3FS2Ng48aNrS8j2t3R8nK7aPPq5Esuf7nn2KVh75KdOnz4cEf+zMxMrK2kOSFkfn6+o8zmpWHvkq0yj12nW5R653X6VP446FP9o2/lj4O+1Tv6VP446FP18E+umCj6/kP4SXyzf7dCtBxCeV7kKKfX76QMg9q89957Y0l1THNzc7GkYo9XoTYOHDjQUZZz+vTpdp7W65XWe+6552IJAGBYRjqh0wDB4MvgC4w7nVNcr7heDYuOmz5FnxoGPqHDRNFJ+NWvfjV74ivPC/HKJNxYOL1g5PL379/fUWfz07j11luz+586duxYOz8Xat/71ZjqFhYWYkmebVehNs6dOxezAADXwkgndLr4M/j6ofYZfIHR0/nC9coPtc/1qj4dE33KD7VPn6qHT+gwEV544YVWyA033NB4xSte0QpRjhfhV06Srhcoz+PVqQ3V2fCkOZcuXYo1na6//np3H+tQ+y+++GK7DYXddlrn/aouVxculnb9EGo/BABguEYyoUsv6gy+PrXP4Lu88LP5EPKLX/yi9UzAEKIcL3784x/HrCvPErTrBcrzeHVqQ3U2PGnO1772tVjT6XOf+5y7j3Wo/XDrE7WhUF14N5zWPfHEE7GFiur++Mc/xpLKG9/4xiXrh1D7y91yYNyk5wHXK5/a53q1vHRf6VM+tU+fqumlEQibXW7TyvHixIkTMcvnrZOGx8tTWF69QrS8a9euWFKZm5tbss5yYZ9jJ6rbtGlTLKksLi6261NnzpzpWmcpp5SfbPdyTF7Qp6r26VNL9XJsXtC3qvbpW1f0ckxe0Keq9ulTFf7JFRMlvNMK4X2i1OzvXWPbtm0xq2rDhvLkyJEjHWVWut7evXtjTbUfufZnZ2c7yiRs264b4uGHH+6abymn7ndSlLNhw4ZYkqd8L9Q+v5wGgOEb6YROF3oGX59yGHyB0dO5wfXKpxyuV/Vp/+lTPuXQp+rhEzpMBJ18Cu9XY/ZkzYXY9kTLO3fujCVVmdeGlsPjb9I8Ky07dOhQuyytC79YU1ueXJ3asvd1EtVt3rw5lviUp1i3bl2sqbbNL6cB4NoayYROF30Fgy+DLzCudJ4ouF5xvRqUjkVBn6JPDQOf0AEAABSOCR0mit6F2UfpqMxSnRcerw1RXa6tffv2deR57LppiP1Oiuq8R+l4lG+/k6LIWb9+fXvdNM6cOROzKmvWrOnI03bCu38AwJA1L7QjEzYf4tSpU7GkKrOR4+Xk1qtTZ0NydZ5h5s/Pz7v1IexPtlXWHHxjSaeVcosJ+lQ+nz7VO+0/fSufT9+qT/tNn8rn06fq4RM6TJRmn27Fco/SEeWcPHkylvjUrserS7dtH6WjOi2n6wb2Oykp7zsp9lE6g2oOLtm26mzn/Pnz7TyF9plfTgPA8I10QqcLPINv/xh8gWtD5wTXq/5xvVpK+02f6h99qsIndAAAAIVjQoeJoHdVEt616R2WwqM6e6POHPsOLt1mjv1RRB25G3XWpfWPHz8eS6r937p1ayyp8rzw5OrU/tq1a2NJPh8AMBwjmdDpoi8Mvgy+wLjSeSJcr7heDUrHIvQp+tQw8AkdJkKvJ6FOZC/Eq9N2bHjSHPsoHbHtii1LQ+xtS2RmZqa9rbRuenq6XZej9WzI6dOn3foQ9kadYm9bojwAwFXUvOCOpbBrg0a/moOv296g4alTZ0O8un6jOfjGVvP7Uzp7zP1Gv+hTk9mnxB57v9Ev+tZk9i17zP1Gv+hTZfYpPqHDRNq0aVP2k6Fm318S3j9hpDkhJPxyq84nT8q5//77Y0metnPw4MFY0j9t24ban5+fj1lVnursw65VZiM1NTXVUWd/NSZa5sbCADB8YzGhY/Bl8AVKwfWK69Ww0afoU8PAJ3QAAACFY0KHiZC+u7K/GhMth1C+wt6oM13PE36YkObZ9lL2Rp2iZRtaf/fu3TGr03I36rTtpaGcAwcOtMtEdfYXayqzoTqFfZZrWhdCtMzNqgHgKmheYK+5sNleNq18L/rltaHl5uAbS/L7qrpcNAffmF2Zm5tr1+coZ8uWLbGkc5vec+xs9Krf9Uat1/1Wvhf98trQMn2q/7/rqPW6/8r3ol9eG1qmb/X/dx2VXvdb+V70y2tDy/Sp/v+uo8QndJgIzb7cCu8TJY/yFfY7KV4baRw9ejRmd346aKn95W5borD7pEjZ25YoduzYEWs7292+fXusqfZnz5497XpRnX2Mj8pspOudPXu2XeZFuh7fywSAq6B5oR2ZsPk06mgOvu663aI5AMY1e9+ml6/weHm9xPT0dGypMj8/35EnCwsLHWVWWnfmzJl2mRei5dWrV8eSMthjUdRBn6q2TZ/y2WNS1EHfqrZN31rKHouiDvpUtW36VIVP6AAAAArHhA4TpfkmpSP0T30e1dkfReSozZ07d8aSqsyj9u1tAJTvhSfNOXz4cKyp6ubm5mJJ5/6cOHGivR+Kuj+KEPukCNVpecuWLe0yxblz5+KaVbsAgKuoefEdK2GXuu2W6upGjpenZfuF0EE1B9+O7XhfCNWyF3W/ECqLi4vtetHy1NRULKk0B992fRql/vOYpWPx2GOtEzlenpbpU1VMQp8SHZPHHnOdyPHytEzfqoLr1dLI8fK0TJ+qgn9yBUZEnwbZEK+ueQ60wv4owqM8rw2FR+vZH0V4+bad5eLee++Na+Vp2/Zh1/Loo4+22xPl2xt1Kueee+5p16frWaqzD7sWrc9tSwDgKmheYEcmbL6XkOW+ECpenRc5Xo5dt5cQ792JNAffJet0C4/q1q9fH0s699W+O0nrbJTKO5ZcCH3K32fVreQ+Jd4x5ULoW/4+q47rVf0Q+pS/z6pbqX2KT+gwkZa7sbDoE6W6NxZWnf0OnajOW3ffvn3tbXXLCVQ3yKN0tB2Fd9sS+yidHOX/4Ac/aLcnqvNuLGy/Q6cyrc9tSwBg+MZiQsfgWwWDLzDeuF5VwfVqOOhTVdCn+scndAAAAIVjQoeJtGnTpvY7rPQdVwhRnY10PVumsE+K8HJEy+FdXre2QoiW//a3v7XzRcv2tiUyMzPTkS/T09Nd64K0LnxaYPcthP1RRMo+KcKjOq3PjyIAYPjGYkLH4Fth8AXGG9erCter4aBPVehT/eMTOkwUnYQ20hM0hKjORprjCc9TrZPnya2nOvudlFy+J5evY7Q3FlaZhMFFdYrFxcVYW9F669atiyWVNWvWdLQBALh6RjqhSy/4ITRI2DJRnY00x8Pgy+ALDCo9R0LovLJlojobaY6H69XKuV6lxxFCx27LRHU20hwPfWpl9Ck+ocNEsv+EkaOT195Y2FvPnughvF+NWblt5+o8ddrasWNHLOlkH/2l/be/GlOZcrzYsGFDzO79gq02AABXz9h9hy5HAwmDL4MvMCpcrypcr4aDPlWhT/WPT+gAAAAKx4QOE8neqFNh38GlZeH5qDbX1tmoK23LPstV0pwQ2s7u3btjVqddu3a18+XYsWMd+6gc+yxX5dhI2e+k5CjH3qgTADAizQvyWAq7phAtnzhxIpZUbL4ip9c8j+pmZ2djSb18G6nlnmMnWm4OvrGkKrPPsUs1B992nidXVzodmz0+LdOnqrboU73TMdrj1DJ9q2qLvlWfjs0en5bpU1Vb9KkKn9BhoqxatapreC5dutSKj370o7GkakN1IUR13//+92NJvXwbkqvzKOfzn/98LKn2/4EHHoglne1+/OMfjzVVvo0c5YTjTduVqampdl6aE0J1AICrZ6QTOu/ir/BoYGDw9SlnJQ++L774YtfwXH/99a2w//SofNWFENVdvnw5ltTLtyG5Oo9ymm/EYkm1/y97WXUq2/ZC2H21+6jIUU5oP23XUl6aE0J1pfPOF4VH5xLXK59yVvL1yjsmhUfHS5/yKWel9qmRTui8i7/Co4GBwdenHAZfYPi880Xh0bnE9cqnnJV8vfKOSeHR8dKnfMpZqX1qpBM6YFjCBS5EuHikkaP1bOTWU91ytwEY1KFDh9r7k6Mc7zYA2lcb8uijj7bXVSjHblthbwMgaU4Iuy2F6gAAV1HzgnvNhc1227TqbEiuzhq0bpixa9eu2Hq+/Zz5+fmu+QsLCx11dcOTqxtndY7JhuTqrEHrhhn0qWurzrHZkFydNWjdMIO+dW3UOSYbkquzBq0bZtCnrh0+ocNEaPblVnhUZ0O8utwnSqqzD7vulbdN8eoUnlye9tUL+yidOtavX79kGzbsbUu8bYmWw4O/AQDDNZIJnQYCjx0o0jyvLh00LNUx+FbB4Av0RueOx55baZ5Xl55nluq4XlUxqdcrHZ/HHn+a59WlfwtLdfSpKiZ5DOQTOkyEV73qVQPFT37yk9hSo3Hx4sVW2PrUV77yla51deXa/973vte1LvxCrFtdoP2Xu+++u12m8PZfy1u2bIklvnS9urTtv//977EEADA0zRnrNXfzzTcPFA8//HBs6aWXmgNEK2x9OCwbN910U0edx66T5nnty3e/+912nSjnhhtu6KiztP/Kbw6+7TLFyZMn220oT8urV69ulynsTRWVJ/amirnQtv/5z3/GNcebdwy9RN0bdebCk8vL1R08eLCjzOaldR7lTE9Px5KK952UXNg+pTKp26dKpXOo3+B6xfUqpePsN+hT9CmP/3/1KvP+eL0Eg28+VuLg6x1DL0GfysdKntB5x9JL0LfywfWq96BP5WOlXq/4J1dMlGaf7ilyvHyFvW2JyrzvYdh1FHXMzs52zfee5WppH5Rjn+Uq4Z9VVa+Q5Z7lmqsDAIzGSCd0GhjqRo6Xr2DwrXccALrTuVQ3crx8BderescxCXS8dSPHy1fQp+odR+n4hA4TKZzk9oKVRr+0/ubNmzsuFFq2ZXabCqmbr6grbfPEiRMdbW3dujXWVtuUU6dOdZSdPn26XZbGunXrYla17XPnzsWSlXVBBYBRGYsJHYMvgy9QCq5XXK+GjT5FnxoGPqEDAAAoHBM6oAv7rk707s1+JyXN6Yfa9UK0vHHjxo5tHjt2rKNMy9u3b48lFfssV1H7CwsLsaSy3rlRp0dtrl27NpZUVMfNqgFg+CZmQqfBIoRo4GHwZfAFxonOrxCic5XrFderfuhvEEL096RPrYw+xSd0QA06uSX8cktluQuG7N+/v52n9WykDh061LXOMzMz07EfWvZifn4+ZnXyfjVmv5MCABg/EzmhSwceBl8A4yo9V7leYVDp35M+tTLwCR0m0kMPPdR46qmnukYdddd761vf2hGi9f7973931Fl23RBPP/30ku2GUF24WKVl9913X2yporovfvGLsaR32o53b6heqa3f/OY3sQQAMCxjMaFj8GXwHbbbbrut8Za3vKVr1FF3vT/96U8dIVrv8uXLHXWWXTfEpUuXlmw3hOpeeOGFjrILFy7EliqqO3/+fCzpnbZz++23x5L+qa03v/nNsaRMXK+4Xg0bfYo+NRQvjUDYbD+b1nrec+xydu7c2V7Xi9TevXvdvG4xOzsb16yobteuXbGkKpuZmYklFdXVfY5dzuLiYkeeXTcXpep3/7UefYo+1U2/x6H16Fv0rVS/+6/16FP0KQ//5IqJou9N1A1Prk6OHDkSzvyukePl2HVD3HrrrUv20+5P2HZaZqlObdl3q6o7cODAku2F8Cj/nnvuaeepTMtnzpyJ2ZU1a9Z05AMArp6RTuh0oa8bnlydMPgy+AKD0rlRNzy5OuF6tXKuV9r/uuHJ1Ql9amX0KT6hw0TQydhvbNu2LbbkX8AGZX81Jlr2tmUfdl0n5ubm4pr5/Vdd7ldjlvIXFxdjSWf7U1NT7TIFj5MDgGvruuaFlistAABAwfiEDgAAoHBM6AAAAArHhA4AAKBwTOgAAAAKx4QOAACgcEzoAAAACseEDgAAoHBM6AAAAArHhA4AAKBwTOgAAAAKx4QOAACgcEzoAAAACseEDgAAoHBM6AAAAArHhA4AAKBwTOgAAAAKx4QOAACgcEzoAAAACseEDgAAoHBM6AAAAArHhA4AAKBwTOgAAAAKx4QOAACgcEzoAAAACseEDgAAoHBM6AAAAArHhA4AAKBwTOgAAAAKx4QOAACgcEzoAAAACseEDgAAoHBM6AAAAArHhA4AAKBwTOgAAAAKx4QOAACgcEzoAAAACseEDgAAoHBM6AAAAArHhA4AAKBwTOgAAAAKx4QOAACgcEzoAAAACseEDgAAoHBM6AAAAArHhA4AAKBwTOgAAAAKx4QOAACgcEzoAAAACseEDgAAoHBM6AAAAArHhA4AAKBwTOgAAAAKx4QOAACgcNe91BRfA8V76KGH4qv+vOc972msWbMmLl2Ra/Ouu+5q3HHHHa3XyvvUpz7V+m/gleXk8tP9mJqaarzzne9svfb2MW3j/PnzjV/+8pdx6Ypbbrml8b73va/1us62b7755sbWrVtbr71t9mLVqlWNT3ziE3EJADCIkU7oBh0QGHwZfFPXXXddfNWfEydONLZt2xaXrsi1eeTIkcbOnTtbr5VnTymvLCeXn+7Hrl27GocPH2699vYxbSMc2/bt2+PSFaF/PPLII63Xdba9fv36xuLiYuu1t81erF69uvHcc8/FpfE36DnE9YrrVWrQ46RP0aeWaF68RyZsfpBoDlCxpYqXp2gOvjGryrO8spxcvuoUzcE31vj7mDp+/HhHTrNjxtp6224OvrHE32Yv0Rx8Y0vjzdv3XoI+RZ/qxjuGXoK+Rd9KefveS9Cn6FMW36HDRGr27Z7CEz6BCpHLD5+SpXlaDiG2LK3LOXToUK18bfvBBx+MJZ3btJ/OKV+fzgUqk4WFhfa6qtOnc5bq6gYAYPjGYkLnXfRz4UkHHi+fwZfBFxiUd57kwpOeq14+16uVc73yjiUXnvTv6eXTpya7T/EJHSbaY4891vruWLeow8ufnp7uCK9NL0/hSevWrVu3ZB1bt5x0vXe9612xpvLMM88sOb50/3vx/PPPd7RlAwBw9Yz0RxFhJh1oF8Lge/HixdZrjwYzrRcGCX2BXWXHjx9v/TdQfvpF8EBfZLd1yvfYdkXrqi7sz9GjR1uvRQNZeGekL7DL3Nxc47Of/WzrdbrtCxcuNH71q1+1XuvvEwbf8C7E0nqh/N3vfnfrtfe/NP1bh8H3pz/9aeu1J/1bl/IF9vQ4N23a1HjiiSdarz3Ky/Upy/vbSq/5/dJ2lutT6bbDsanPqm5+fr7xoQ99qPVaVNdrnzp79mxrAtqN8rReKX1K0uPlelXhetUf+hR9aqiaBzcyYfN2FzZu3Ngu80K03OwosaQqs5HTa36/1HazM8eSyoMPPth1280TpKPukUceaZeldY8//nhHmZXWnTlzpl3mhWi5hC+EBun+06cq9KnBpMdB36rQt/qT7j99qkKf6h3/5Aoso3metCO8W+sWvfLWs+2F2L17d6ypaF+aF/+OfL3bDVTmUV366Vw3yt+wYUMsAQCMk4mb0DH4MvgCpeB6xfVq2OhTK7dP8Qkd0IV3UVSZhBsLq8wLsW2kbdmylP3VWBrhu4F2W2mI8u13Zerk6/soAIDxNzETOg1KGoxCpAMVgy+AcaDzWOdviPTc5nqFXuhvrb9xiPTvT5+abHxCh4l25513Nt7//vd3jTps/s9//vNWyFNPPdUuS+sCryxl2xdbloaER+P00v473vGOWFLtlw2x20ojPDqomxtvvNFdRwEAuHrG6rYlX/7ylxtPPvlk67XnZz/7Weu/Wi/8HDp97uYHPvCB+KrR+MY3vtH6r8r27NnTuPvuu1uvxQ40GtRsG6J9tHXKzw1Wyvnwhz/cuO+++1qvvXwdk+qeffbZxu9+97vWax23pf3IbTvcQiJ91qeO4+mnn27MzMy0XnvSv3URP9luSo+zrlyfspSXY7edy/f2sc7+e23WaSscm33X201u21adffVovVL6lKTHy/WK69Wg6FMV+tQQNA9uZMLm+9kFrdfszLHEp7xcWF69wpOrE9tGLj+tsz/ZzkVdveaL1ivhJ9vBoMdJn8pv2+o1X7ReKX1KBj1e+lZ+21av+aL1uF5dobxcWF69wpOrE9tGLj+to0/1jn9yxUQK76p6CU+urnnutEI35wxUZttVmezfv78jLyf3KJ1wo860LfursRyt5z1KR23Z76SozPvVmOrqBgBg+MZiQudd9HPhydVpoGLwZfAFBuWdJ7nw5Op0bnO9WjnXK+9YcuHJ1envT5+a7D7FJ3SYKDrJ+43c9+cC5elk37x5c7tMtOyV7d27N5Z0tuVdPGZnZ9t5dYRH6aRtaXm5788pT9v79re/3S7zKK/fKOn7cwAw7kY6ofMu8r0Egy+DL3CteOdFL8H1iutVytv3XoI+RZ+y+IQOAACgcEzoMFFy79BytN7JkydjiS9tP3wvJC3zKMeG2HeB4uUrcnbs2LGkPdumpbbCu9pcXur06dNL9iWEJ82xAQAYvpFO6Pq9wGs9Bt88Bl9gePo9J7Qe16u8lXi96ne/tR59Km+l9Sk+ocNE27Rpk3uSKkQXCfudFJXl8m3YvDRfvF+N2bDthTh48GBcsx77nRSFR+3bX42J1qv7KB27LYVH2wQADN9YTegYfBl8gVJwveJ6NWz0KfrUIPiEDhPpD3/4Qyv+85//xJLK2972tnYoT+H9ksnmKzx16i5fvtzeVh2vec1r2usq5OLFi9m20vxXvvKV7TKt95e//CXWVpRzxx13xBL/b6CoK7evAIDBjMWzXH//+9+3/vuZz3ym8dvf/rb1WuyA8cMf/jC+uuK2225rDVLW29/+9viqovYt5dkBRn8K1X36059ufOxjH2u99tpN/3QPPPBA41vf+lZcukLtf/KTn2x885vfbL322tJxKj8cVzi+QMcdniV3++23t17rb6f1nn/++caf//zn1uvcIFt3QNXfrJcBexx0e7dl2f9vab73bMRe2TbTPrJv377G/fffH5c61Tkd6xxjoLaUPz093Th+/Hjrtcq2bt3afterMq23sLDQfteb26+6+yN1jnEc6Ti5XnG9Ghb6VIU+NQTN/yEjEza/XFhp3XLPsavDtpfau3fvkvo06vDW80K03Bx8Y0lV1hx8Y0lVJo8//nhHmUc5daM03jGkYaV19KlqPfrUUt6xpGGldfStaj361hXeMaRhpXX0qWo9+hTPcsWEafbpZcNK67xP58I7wV7Ctqcysd9J8UK03u7du2NJVebJtSXh08e0jfn5+a7t2puQKsd7lI7dpsKjOrWVfrIAABhA8wI7UcIh9RKWV1aH1pudnY0l+f3I8fJz4VHd+vXrY0mebU8hWl69enUsWXns36VOWF5ZHVqPPjXZ7N+nTlheWR1aj741mezfpU5YXlkdWo8+NVp8QoeJpE+BbHjSHHtfJ5U1z5N2pI4cObKk3svpRu1b6Tbr/mpM64X7OqXsvqURPqETlXlUt7i4GEs6nT17tr0fsmbNmva6aR0AYHjGYkKnC70NT5rD4MvgC1xrOjdseNIcrldcr7rR/tvwpDn0KfqUxSd0mCh//etfWyFveMMbWr+U0q+lulHOjTfeGEuqMo/q/ve//3VsU8sh6rRhqcy2ocjReuE2J5KuF27hYtsL8a9//atjmx67Tpqn5fPnz8eSan9uueWWdr3KFG9605tiNgBgUCO9bYkGBf0MOQy+L3/5y1uvvftjabYcBoPg6NGjjQ9+8IOt12rDrpfmf/3rX2985CMfab1WmfYheO9739v6r7dtr32VPfbYY63/WqrzaNvh5+Df+c53Wq+1H6oLg+8zzzzTei2//vWv21+S1zaVb9ljkvR4w391vKp77Wtf2/jRj37Ueq06uemmmxpPPvlkXBpf6TuqU6dONTZu3BiXOim/7mmQ5odH6YR+GKjM7kO/p1d6HMvxtpPua/hRxPbt21uvZcuWLe13vbm/hbc/3vGK6sIkb+3ata3XXrsl0bnD9araD9VxveqPjo8+Ve2H6uhTfWheZEcmbN5Gc/CNNT7l1ZXm79y5s6NMy7asV7aNOuFJ644fP75knRDNwTfW5v8Wdp00L1d37ty5jrLS2OMKQZ+q6uhTg7HHF4K+VdXRt/pjjysEfaqqo0/1jn9yxURp9ulWiH2Ujmg5hPK17H0nxYZoWZ/OBWlOkJaFGwurLK0LvLJBqc2wrzpexZ49ezq2qWUbdUxNTbXb1Xp33XVXRxkAYPhGOqHThV4YfJfuq45XweALjI7ODeF6tXRfdbwKrlfL0/4LfWrpvup4FfSpPD6hw0R63ete14pVq1bFkjzl6/sr3SgvF5ZXlgrfE1Gkwo80bNs27I15tX74kYMoT/773/923U6Q5nvC31N5akvLr371q2NWJTy7Nt2mlp999tlYAgAY1FhM6DQgMPgy+A7LP/7xj1bceeedsSRP+eHZpjnKy4XllaVe//rXtyP1hS98YUnbNuwtArT+l770pVjSue3wzNZu2wnSfE94rqHy1JaWwxeWUxcuXOjYppbtw/9LonOI6xXXq2HRcdKn6FMDeWmMbNy4sfVlRLtbWl5uV21enXzJ5S/3HLs07F2yU4cPH+7In5mZibWVNCeEzM/Pd5TZvDTsXbJV5rHrdItS77xOn8ofB32qf/St/HHQt3pHn8ofB30qj39yxUTS9x/CT+Kb/bwVouUQyvMiRzm9fidlGNTmvffeG0uqY5qbm4slFXu8CrVx4MCBjrKc06dPt/O0Xq+03nPPPRdLAACDGosJnQYIBl8GX2Dc6ZziesX1alh03PQp+tQg+IQOE0kn4Ve/+tXsia88L8Qrk3Bj4fSCkcvfv39/R53NT+PWW2/N7n/q2LFj7fxcqH3vV2OqW1hYiCV5tl2F2jh37lzMAgBcTWMxodPFn8HXD7XP4AuMns4Xrld+qH2uV/XpmOhTfqh9+lQen9BhorzwwgutkBtuuKHxile8ohWiHC/Cr5wkXS9QnserUxuqs+FJcy5duhRrOl1//fXuPtah9l988cV2Gwq77bTO+1Vdri5cLO36IdR+CADAcIx0Qpde1Bl8fWqfwXd54WfzIeQXv/hF65mAIUQ5Xvz4xz+OWVeeJWjXC5Tn8erUhupseNKcr33ta7Gm0+c+9zl3H+tQ++HWJ2pDobrwbjite+KJJ2ILFdX98Y9/jCWVN77xjUvWD6H2l7vlwLhJzwOuVz61z/Vqeem+0qd8ap8+tYyXRihsfrldUI4XJ06ciFk+b500PF6ewvLqFaLlXbt2xZLK3NzcknWWC/scO1Hdpk2bYkllcXGxXZ86c+ZM1zpLOaXcBqCXY/KCPlW1T59aqpdj84K+VbVP37qil2Pygj5VtU+f4rYlmFDhnVYI7xOlZr/vGtu2bYtZVRs2lCdHjhzpKLPS9fbu3Rtrqv3ItT87O9tRJmHbdt0QDz/8cNd8Szl1v5OinA0bNsSSPOV7ofb55TQADM9YTOh0oWfw9SmHwRcYPZ0bXK98yuF6VZ/2nz7lUw59Ko9P6DBRdPIpvF+N2ZM1F2LbEy3v3LkzllRlXhtaDo+/SfOstOzQoUPtsrQu/GJNbXlydWrL3tdJVLd58+ZY4lOeYt26dbGm2ja/nAaAa2OkEzpd9BUMvgy+wLjSeaLgesX1alA6FgV9ij41CD6hAwAAKBwTOkwkvQuzj9JRmaU6LzxeG6K6XFv79u3ryPPYddMQ+50U1XmP0vEo334nRZGzfv369rppnDlzJmZV1qxZ05Gn7YR3/wCAIWleYEcu7EaIU6dOxZKqzEaOl5Nbr06dDcnVeYaZPz8/79aHsD/ZVllz8I0lnVbKLSboU/l8+lTvtP/0rXw+fas+7Td9Kp9Pn8rjEzpMpGbfbsVyj9IR5Zw8eTKW+NSux6tLt20fpaM6LafrBvY7KSnvOyn2UTqDag4u2bbqbOf8+fPtPIX2mV9OA8DwjMWEThd4Bt/+MfgC14bOCa5X/eN6tZT2mz7VP/oU36EDAAAoHhM6TBS9q5Lwrk3vsBQe1dkbdebYd3DpNnPsjyLqyN2osy6tf/z48VhS7f/WrVtjSZXnhSdXp/bXrl0bS/L5AIDBjHRCp4u+MPgy+ALjSueJcL3iejUoHYvQp+hTg+ATOkyUXk9CncheiFen7djwpDn2UTpi2xVblobY25bIzMxMe1tp3fT0dLsuR+vZkNOnT7v1IeyNOsXetkR5AICroHmhHWthFweNfjUHX7e9QcNTp86GeHX9RnPwja3m96d09pj7jX7RpyazT4k99n6jX/Styexb9pj7jX7Rp8rqU3xCh4m2adOm7CdDzXNgSXj/hJHmhJDwy606nzwp5/77748ledrOwYMHY0n/tG0ban9+fj5mVXmqsw+7VpmN1NTUVEed/dWYaJkbCwPA8IzVhI7Bl8EXKAXXK65Xw0afok8Ngk/oAAAACseEDhMlfXdlfzUmWg6hfIW9UWe6nif8MCHNs+2l7I06Rcs2tP7u3btjVqflbtRp20tDOQcOHGiXiersL9ZUZkN1Cvss17QuhGiZm1UDwBA1L6wjEzbfyy4o34t+eW1ouTn4xpL8vqouF83BN2ZX5ubm2vU5ytmyZUss6dym9xw7G73qd71R63W/le9Fv7w2tEyf6v/vOmq97r/yveiX14aW6Vv9/11Hpdf9Vr4X/fLa0DJ9qv+/6yjwCR0mSrNPt8L7RMmjfIX9TorXRhpHjx6N2Z2fDlpqf7nblijsPilS9rYlih07dsTazna3b98ea6r92bNnT7teVGcf46MyG+l6Z8+ebZd5ka7H9zIBYIiaF9iRC7uRRh3Nwdddt1s0B8C4Zu/b9PIVHi+vl5ieno4tVebn5zvyZGFhoaPMSuvOnDnTLvNCtLx69epYUgZ7LIo66FPVtulTPntMijroW9W26VtL2WNR1EGfqrZNn+ITOgAAgOIxocNEar5Z6Qj9U59HdfZHETlqc+fOnbGkKvOofXsbAOV74UlzDh8+HGuqurm5uVjSuT8nTpxo74ei7o8ixD4pQnVa3rJlS7tMce7cubhm1S4A4CpoXnTHUti1brunurqR4+Vp2X4hdFDNwbdjO94XQrXsRd0vhMri4mK7XrQ8NTUVSyrNwbddn0ap/zxm6Vg89ljrRI6Xp2X6VBWT0KdEx+Sxx1wncrw8LdO3quB6tTRyvDwt06eq4J9cgRHRp0E2xKtrngutsD+K8CjPa0Ph0Xr2RxFevm1nubj33nvjWnnatn3YtTz66KPt9kT59kadyrnnnnva9el6lursw65F63PbEgAYouaFdeTCbvQSstwXQsWr8yLHy7Hr9hLivTuR5uC7ZJ1u4VHd+vXrY0nnvtp3J2mdjVJ5x5ILoU/5+6y6ldynxDumXAh9y99n1XG9qh9Cn/L3WXUrrU/xCR0m2nI3FhZ9olT3xsKqs9+hE9V56+7bt6+9rW45geoGeZSOtqPwbltiH6WTo/wf/OAH7fZEdd6Nhe136FSm9bltCQAMz1hN6Bh8q2DwBcYb16squF4NB32qCvpU7/iEDgAAoHBM6DDRNm3a1H6Hlb7jCiGqs5GuZ8sU9kkRXo5oObzL69ZWCNHy3/72t3a+aNnetkRmZmY68mV6erprXZDWhU8L7L6FsD+KSNknRXhUp/X5UQQADM9YTegYfCsMvsB443pV4Xo1HPSpCn2qd3xCh4mkk9BGeoKGENXZSHM84XmqdfI8ufVUZ7+Tksv35PJ1jPbGwiqTMLioTrG4uBhrK1pv3bp1saSyZs2ajjYAAMM3FhO69IIfQoOELRPV2UhzPAy+DL7AoNJzJITOK1smqrOR5ni4Xq2c61V6HCF07LZMVGcjzfHQpya7T/EJHSaa/SeMHJ289sbC3nr2RA/h/WrMym07V+ep09aOHTtiSSf76C/tv/3VmMqU48WGDRtidu8XbLUBABi+sf0OXY4GEgZfBl9gVLheVbheDQd9qkKf6h2f0AEAABSOCR0mmr1Rp8K+g0vLwvNRba6ts1FX2pZ9lqukOSG0nd27d8esTrt27Wrny7Fjxzr2UTn2Wa7KsZGy30nJUY69UScA4BprXojHWthFhWj5xIkTsaRi8xU5veZ5VDc7OxtL6uXbSC33HDvRcnPwjSVVmX2OXao5+LbzPLm60unY7PFpmT5VtUWf6p2O0R6nlulbVVv0rfp0bPb4tEyfqtqiT/EsV0yoVatWdQ3PpUuXWvHRj340llRtqC6EqO773/9+LKmXb0NydR7lfP7zn48l1f4/8MADsaSz3Y9//OOxpsq3kaOccLxpuzI1NdXOS3NCqA4AMHxjMaHzLv4KjwYGBl+fclby4Pviiy92Dc/111/fCvtPj8pXXQhR3eXLl2NJvXwbkqvzKKf5hiyWVPv/spdVp7RtL4TdV7uPihzlhPbTdi3lpTkhVFc673xReHQucb3yKWclX6+8Y1J4dLz0KZ9yVlqfGosJnXfxV3g0MDD4+pTD4AsMn3e+KDw6l7he+ZSzkq9X3jEpPDpe+pRPOSutT43FhA4YlnCBCxEuHmnkaD0bufVUt9xtAAZ16NCh9v7kKMe7DYD21YY8+uij7XUVyrHbVtjbAEiaE8JuS6E6AMBV0LzQjkzYfLddUJ0NydVZg9YNM3bt2hVbz7efMz8/3zV/YWGho65ueHJ146zOMdmQXJ01aN0wgz51bdU5NhuSq7MGrRtm0LeujTrHZENyddagdcMM+tTVxyd0mCjNPt0Kj+psiFeX+0RJdfZh173ytilencKTy9O+emEfpVPH+vXrl2zDhr1tibct0XJ48DcAYDhGOqHTQOCxA0Wa59Wlg4alOgbfKhh8gd7o3PHYcyvN8+rS88xSHderKib1eqXj89jjT/O8uvRvYamOPlXFJPYpPqHDRHnVq141UPzkJz+JLTUaFy9ebIWtT33lK1/pWldXrv3vfe97XevCL8S61QXaf7n77rvbZQpv/7W8ZcuWWOJL16tL2/773/8eSwAAA2vOVEfm5ptvHigefvjh2NJLLzUHiFbY+nB4Nm666aaOOo9dJ83z2pfvfve77TpRzg033NBRZ2n/ld8cfNtlipMnT7bbUJ6WV69e3S5T2JsqKk/sTRVzoW3/85//jGuON+8Yeom6N+rMhSeXl6s7ePBgR5nNS+s8ypmeno4lFe87KbmwfUplUrdPlUrnUL/B9YrrVUrH2W/Qp+hTlv9/8xrx/ni9BINvPlbi4OsdQy9Bn8rHSp7QecfSS9C38sH1qvegT+VjpfUp/skVE6nZt3uKHC9fYW9bojLvexh2HUUds7OzXfO9Z7la2gfl2Ge5SvhnVdUrZLlnuebqAADX1lhM6DQw1I0cL1/B4FvvOAB0p3OpbuR4+QquV/WOYxLoeOtGjpevoE/VO45S8QkdJlo4ye0FK41+af3Nmzd3XCi0bMvsNhVSN19RV9rmiRMnOtraunVrrK22KadOneooO336dLssjXXr1sWsatvnzp2LJSvjggoAozJWEzoGXwZfoBRcr7heDRt9ij41CD6hAwAAKBwTOmAZ9l2d6N2b/U5KmtMPteuFaHnjxo0d2zx27FhHmZa3b98eSyr2Wa6i9hcWFmJJZb1zo06P2ly7dm0sqaiOm1UDwPBM3IROg0UI0cDD4MvgC4wTnV8hROcq1yuuV/3Q3yCE6O9Jn5rsPsUndEAPdHJL+OWWynIXDNm/f387T+vZSB06dKhrnWdmZqZjP7Tsxfz8fMzq5P1qzH4nBQAwPiZ6QpcOPAy+AMZVeq5yvcKg0r8nfWqy8QkdJtpDDz3UeOqpp7pGHXXXe+tb39oRovX+/e9/d9RZdt0QTz/99JLthlBduFilZffdd19sqaK6L37xi7Gkd9qOd2+oXqmt3/zmN7EEADCosZrQMfgy+A7bbbfd1njLW97SNeqou96f/vSnjhCtd/ny5Y46y64b4tKlS0u2G0J1L7zwQkfZhQsXYksV1Z0/fz6W9E7buf3222NJ/9TWm9/85lhSJq5XXK+GjT5FnxrISyMUNt/PLmg97zl2OTt37myv60Vq7969bl63mJ2djWtWVLdr165YUpXNzMzEkorq6j7HLmdxcbEjz66bi1L1u/9ajz5Fn+qm3+PQevQt+laq3/3XevQp+pTFP7liIul7E3XDk6uTI0eOhDO/a+R4OXbdELfeeuuS/bT7E7adllmqU1v23arqDhw4sGR7ITzKv+eee9p5KtPymTNnYnZlzZo1HfkAgOEbiwmdLvR1w5OrEwZfBl9gUDo36oYnVydcr1bO9Ur7Xzc8uTqhT012n+ITOkwUnYz9xrZt22JL/gVsUPZXY6Jlb1v2Ydd1Ym5uLq6Z33/V5X41Zil/cXExlnS2PzU11S5T8Dg5ALg2rmteYLnCAgAAFIxP6AAAAArHhA4AAKBwTOgAAAAKx4QOAACgcEzoAAAACseEDgAAoHBM6AAAAArHhA4AAKBwTOgAAAAKx4QOAACgcEzoAAAACseEDgAAoHBM6AAAAArHhA4AAKBwTOgAAAAKx4QOAACgcEzoAAAACseEDgAAoHBM6AAAAArHhA4AAKBwTOgAAAAKx4QOAACgcEzoAAAACseEDgAAoHBM6AAAAArHhA4AAKBwTOgAAAAKx4QOAACgcEzoAAAACseEDgAAoHBM6AAAAArHhA4AAKBwTOgAAAAKx4QOAACgcEzoAAAACseEDgAAoHBM6AAAAArHhA4AAKBwTOgAAAAKx4QOAACgcEzoAAAACseEDgAAoHBM6AAAAArHhA4AAKBwTOgAAAAKx4QOAACgcEzoAAAACseEDgAAoHBM6AAAAArHhA4AAKBwTOgAAAAKx4QOAACgcEzoAAAACseEDgAAoHBM6AAAAArHhA4AAKBwTOgAAAAKx4QOAACgcEzoAAAACseEDgAAoHBM6AAAAArHhA4AAKBwTOgAAAAKx4QOAACgcEzoAAAACseEDgAAoHBM6AAAAArHhA4AAKBwTOgAAAAKx4QOAACgcEzoAAAACseEDgAAoGiNxv8BONP/C4CrW+EAAAAASUVORK5CYII=;" parent="1" vertex="1">
          <mxGeometry x="870" y="383.99999999999994" width="168" height="112.89" as="geometry" />
        </mxCell>
        <mxCell id="xKx9XlLuNAV2VJ_ILK_Q-13" value="" style="curved=1;endArrow=classic;html=1;rounded=0;exitX=1;exitY=0.5;exitDx=0;exitDy=0;strokeWidth=3;dashed=1;entryX=-0.016;entryY=0.813;entryDx=0;entryDy=0;entryPerimeter=0;strokeColor=light-dark(#000000,#7A7A7A);" parent="1" source="pTmIeidkta4TC5YCTn2a-3" edge="1" target="pTmIeidkta4TC5YCTn2a-5">
          <mxGeometry width="50" height="50" relative="1" as="geometry">
            <mxPoint x="216.25" y="749.9999999999998" as="sourcePoint" />
            <mxPoint x="860" y="470" as="targetPoint" />
            <Array as="points">
              <mxPoint x="750" y="190" />
              <mxPoint x="660" y="500" />
              <mxPoint x="820" y="510" />
            </Array>
          </mxGeometry>
        </mxCell>
        <mxCell id="xKx9XlLuNAV2VJ_ILK_Q-14" value="&lt;h1 style=&quot;margin-top: 0px;&quot;&gt;í ½í³ QR Vault&lt;/h1&gt;&lt;p&gt;&lt;br&gt;&lt;/p&gt;" style="text;html=1;whiteSpace=wrap;overflow=hidden;rounded=0;align=center;" parent="1" vertex="1">
          <mxGeometry x="860" y="344" width="170" height="40" as="geometry" />
        </mxCell>
        <mxCell id="xKx9XlLuNAV2VJ_ILK_Q-16" value="&lt;h1 style=&quot;margin-top: 0px;&quot;&gt;í ½í´ Encoder&lt;/h1&gt;" style="text;html=1;whiteSpace=wrap;overflow=hidden;rounded=0;align=center;" parent="1" vertex="1">
          <mxGeometry x="373.5" y="80" width="180" height="40" as="geometry" />
        </mxCell>
        <mxCell id="xKx9XlLuNAV2VJ_ILK_Q-21" value="" style="shape=image;verticalLabelPosition=bottom;labelBackgroundColor=default;verticalAlign=top;aspect=fixed;imageAspect=0;image=https://cdn-icons-png.freepik.com/512/7812/7812078.png;" parent="1" vertex="1">
          <mxGeometry x="640" y="360" width="112" height="112" as="geometry" />
        </mxCell>
      </root>
    </mxGraphModel>
  </diagram>
</mxfile>
